<svg width="128" height="40" viewBox="0 0 128 40" fill="none" xmlns="http://www.w3.org/2000/svg">
<path d="M5.75 10.25C5.33579 10.25 5 10.5858 5 11V11.75H0.75C0.335786 11.75 0 12.0858 0 12.5C0 12.9142 0.335786 13.25 0.75 13.25H14.75C15.1642 13.25 15.5 12.9142 15.5 12.5C15.5 12.0858 15.1642 11.75 14.75 11.75H10.5V11C10.5 10.5858 10.1642 10.25 9.75 10.25H5.75Z" fill="black"/>
<path d="M5.75 18.65C6.16421 18.65 6.5 18.9858 6.5 19.4L6.5 26.4C6.5 26.8142 6.16421 27.15 5.75 27.15C5.33579 27.15 5 26.8142 5 26.4L5 19.4C5 18.9858 5.33579 18.65 5.75 18.65Z" fill="black"/>
<path d="M10.5 19.4C10.5 18.9858 10.1642 18.65 9.75 18.65C9.33579 18.65 9 18.9858 9 19.4V26.4C9 26.8142 9.33579 27.15 9.75 27.15C10.1642 27.15 10.5 26.8142 10.5 26.4V19.4Z" fill="black"/>
<path fill-rule="evenodd" clip-rule="evenodd" d="M1.74142 15.9172C1.78363 15.5374 2.10468 15.25 2.48684 15.25H13.0132C13.3953 15.25 13.7164 15.5374 13.7586 15.9172L13.9587 17.7185C14.3215 20.9838 14.3215 24.2793 13.9587 27.5446L13.939 27.722C13.795 29.0181 12.7904 30.0517 11.4989 30.2325C9.01176 30.5807 6.48823 30.5807 4.00108 30.2325C2.70954 30.0517 1.705 29.0181 1.56098 27.722L1.54128 27.5446C1.17846 24.2793 1.17846 20.9838 1.54128 17.7185L1.74142 15.9172ZM3.15812 16.75L3.0321 17.8842C2.68152 21.0394 2.68152 24.2238 3.0321 27.379L3.0518 27.5563C3.12011 28.171 3.59652 28.6612 4.20905 28.747C6.55822 29.0758 8.94177 29.0758 11.2909 28.747C11.9035 28.6612 12.3799 28.171 12.4482 27.5563L12.4679 27.379C12.8185 24.2238 12.8185 21.0394 12.4679 17.8842L12.3419 16.75H3.15812Z" fill="black"/>
<path d="M34.0209 29.2727C33.7936 29.2727 33.591 29.2538 33.413 29.2159C33.2349 29.1818 33.1118 29.1477 33.0436 29.1136L33.3845 27.9318C33.7103 28.0152 33.9982 28.0455 34.2482 28.0227C34.4982 28 34.7198 27.8883 34.913 27.6875C35.1099 27.4905 35.2898 27.1705 35.4527 26.7273L35.7027 26.0455L32.4755 17.2727H33.93L36.3391 24.2273H36.43L38.8391 17.2727H40.2936L36.5891 27.2727C36.4224 27.7235 36.216 28.0966 35.9698 28.392C35.7236 28.6913 35.4376 28.9129 35.1118 29.0568C34.7898 29.2008 34.4262 29.2727 34.0209 29.2727ZM40.0773 28.5V24.75H40.8046C40.9826 24.5644 41.136 24.3636 41.2648 24.1477C41.3936 23.9318 41.5054 23.6761 41.6001 23.3807C41.6985 23.0814 41.7819 22.7178 41.8501 22.2898C41.9182 21.858 41.9788 21.3371 42.0319 20.7273L42.3273 17.2727H47.8728V24.75H49.2137V28.5H47.8728V26H41.4182V28.5H40.0773ZM42.3273 24.75H46.5319V18.5227H43.5773L43.3501 20.7273C43.2554 21.6402 43.1379 22.4375 42.9978 23.1193C42.8576 23.8011 42.6341 24.3447 42.3273 24.75ZM53.2417 26.2045C52.6887 26.2045 52.1868 26.1004 51.736 25.892C51.2853 25.6799 50.9273 25.375 50.6622 24.9773C50.397 24.5758 50.2644 24.0909 50.2644 23.5227C50.2644 23.0227 50.3629 22.6174 50.5599 22.3068C50.7569 21.9924 51.0201 21.7462 51.3497 21.5682C51.6792 21.3902 52.0428 21.2576 52.4406 21.1705C52.8421 21.0795 53.2455 21.0076 53.6508 20.9545C54.1811 20.8864 54.611 20.8352 54.9406 20.8011C55.2739 20.7633 55.5163 20.7008 55.6678 20.6136C55.8231 20.5265 55.9008 20.375 55.9008 20.1591V20.1136C55.9008 19.553 55.7474 19.1174 55.4406 18.8068C55.1375 18.4962 54.6773 18.3409 54.0599 18.3409C53.4197 18.3409 52.9178 18.4811 52.5542 18.7614C52.1906 19.0417 51.9349 19.3409 51.7872 19.6591L50.5144 19.2045C50.7417 18.6742 51.0447 18.2614 51.4235 17.9659C51.8061 17.6667 52.2228 17.4583 52.6735 17.3409C53.1281 17.2197 53.575 17.1591 54.0144 17.1591C54.2947 17.1591 54.6167 17.1932 54.9803 17.2614C55.3478 17.3258 55.7019 17.4602 56.0428 17.6648C56.3875 17.8693 56.6735 18.178 56.9008 18.5909C57.1281 19.0038 57.2417 19.5568 57.2417 20.25V26H55.9008V24.8182H55.8326C55.7417 25.0076 55.5902 25.2102 55.3781 25.4261C55.1659 25.642 54.8838 25.8258 54.5315 25.9773C54.1792 26.1288 53.7493 26.2045 53.2417 26.2045ZM53.4463 25C53.9766 25 54.4235 24.8958 54.7872 24.6875C55.1546 24.4792 55.4311 24.2102 55.6167 23.8807C55.8061 23.5511 55.9008 23.2045 55.9008 22.8409V21.6136C55.844 21.6818 55.719 21.7443 55.5258 21.8011C55.3364 21.8542 55.1167 21.9015 54.8667 21.9432C54.6205 21.9811 54.38 22.0152 54.1451 22.0455C53.9141 22.072 53.7266 22.0947 53.5826 22.1136C53.2341 22.1591 52.9084 22.233 52.6053 22.3352C52.3061 22.4337 52.0637 22.5833 51.8781 22.7841C51.6963 22.9811 51.6053 23.25 51.6053 23.5909C51.6053 24.0568 51.7777 24.4091 52.1224 24.6477C52.4709 24.8826 52.9122 25 53.4463 25ZM58.5964 26V24.75H58.9146C59.176 24.75 59.3938 24.6989 59.568 24.5966C59.7423 24.4905 59.8824 24.3068 59.9885 24.0455C60.0983 23.7803 60.1816 23.4129 60.2385 22.9432C60.2991 22.4697 60.3426 21.8674 60.3691 21.1364L60.5282 17.2727H66.3464V26H65.0055V18.5227H61.801L61.6646 21.6364C61.6343 22.3523 61.5699 22.983 61.4714 23.5284C61.3767 24.0701 61.2309 24.5246 61.0339 24.892C60.8407 25.2595 60.5832 25.536 60.2612 25.7216C59.9392 25.9072 59.5358 26 59.051 26H58.5964ZM69.8276 24.0227L74.0321 17.2727H75.5776V26H74.2366V19.25L70.0548 26H68.4866V17.2727H69.8276V24.0227ZM76.526 18.5227V17.2727H83.6169V18.5227H80.7533V26H79.4124V18.5227H76.526ZM86.412 20.4318H88.912C89.9347 20.4318 90.7169 20.6913 91.2586 21.2102C91.8002 21.7292 92.0711 22.3864 92.0711 23.1818C92.0711 23.7045 91.9499 24.1799 91.7074 24.608C91.465 25.0322 91.109 25.3712 90.6393 25.625C90.1696 25.875 89.5938 26 88.912 26H85.2529V17.2727H86.5938V24.75H88.912C89.4423 24.75 89.8779 24.6098 90.2188 24.3295C90.5597 24.0492 90.7302 23.6894 90.7302 23.25C90.7302 22.7879 90.5597 22.411 90.2188 22.1193C89.8779 21.8277 89.4423 21.6818 88.912 21.6818H86.412V20.4318ZM106.514 14.3636H107.9V23.5227H108.014L114.378 14.3636H115.741V26H114.332V16.8636H114.219L107.878 26H106.514V14.3636ZM125.082 26L121.082 20.6591H119.65V26H118.241V14.3636H119.65V19.4091H120.264L124.923 14.3636H126.605L121.9 19.4773L126.764 26H125.082Z" fill="black"/>
</svg>
