<svg width="131" height="40" viewBox="0 0 131 40" fill="none" xmlns="http://www.w3.org/2000/svg">
<path d="M65.7827 26.1818C64.9645 26.1818 64.26 25.9886 63.6691 25.6023C63.0782 25.2159 62.6236 24.6837 62.3055 24.0057C61.9873 23.3277 61.8282 22.553 61.8282 21.6818C61.8282 20.7955 61.9911 20.0133 62.3168 19.3352C62.6464 18.6534 63.1047 18.1212 63.6918 17.7386C64.2827 17.3523 64.9721 17.1591 65.76 17.1591C66.3736 17.1591 66.9267 17.2727 67.4191 17.5C67.9115 17.7273 68.3149 18.0455 68.6293 18.4545C68.9437 18.8636 69.1388 19.3409 69.2145 19.8864H67.8736C67.7714 19.4886 67.5441 19.1364 67.1918 18.8295C66.8433 18.5189 66.3736 18.3636 65.7827 18.3636C65.26 18.3636 64.8017 18.5 64.4077 18.7727C64.0176 19.0417 63.7127 19.4223 63.493 19.9148C63.277 20.4034 63.1691 20.9773 63.1691 21.6364C63.1691 22.3106 63.2752 22.8977 63.4873 23.3977C63.7032 23.8977 64.0062 24.286 64.3964 24.5625C64.7903 24.839 65.2524 24.9773 65.7827 24.9773C66.1312 24.9773 66.4475 24.9167 66.7316 24.7955C67.0157 24.6742 67.2562 24.5 67.4532 24.2727C67.6502 24.0455 67.7903 23.7727 67.8736 23.4545H69.2145C69.1388 23.9697 68.9513 24.4337 68.652 24.8466C68.3566 25.2557 67.9645 25.5814 67.4759 25.8239C66.9911 26.0625 66.4267 26.1818 65.7827 26.1818ZM70.8548 26V17.2727H74.423C75.3623 17.2727 76.1086 17.4848 76.6616 17.9091C77.2146 18.3333 77.4911 18.8939 77.4911 19.5909C77.4911 20.1212 77.3339 20.5322 77.0195 20.8239C76.7052 21.1117 76.3017 21.3068 75.8093 21.4091C76.1313 21.4545 76.4438 21.5682 76.7468 21.75C77.0536 21.9318 77.3074 22.1818 77.5082 22.5C77.7089 22.8144 77.8093 23.2008 77.8093 23.6591C77.8093 24.1061 77.6957 24.5057 77.4684 24.858C77.2411 25.2102 76.9154 25.4886 76.4911 25.6932C76.0669 25.8977 75.5593 26 74.9684 26H70.8548ZM72.1275 24.7727H74.9684C75.4305 24.7727 75.7923 24.6629 76.0536 24.4432C76.315 24.2235 76.4457 23.9242 76.4457 23.5455C76.4457 23.0947 76.315 22.7405 76.0536 22.483C75.7923 22.2216 75.4305 22.0909 74.9684 22.0909H72.1275V24.7727ZM72.1275 20.9318H74.423C74.7828 20.9318 75.0915 20.8826 75.3491 20.7841C75.6067 20.6818 75.8036 20.5379 75.94 20.3523C76.0802 20.1629 76.1502 19.9394 76.1502 19.6818C76.1502 19.3144 75.9968 19.0265 75.69 18.8182C75.3832 18.6061 74.9608 18.5 74.423 18.5H72.1275V20.9318ZM83.1782 26.1818C82.3373 26.1818 81.6119 25.9962 81.0021 25.625C80.396 25.25 79.9282 24.7273 79.5987 24.0568C79.2729 23.3826 79.1101 22.5985 79.1101 21.7045C79.1101 20.8106 79.2729 20.0227 79.5987 19.3409C79.9282 18.6553 80.3866 18.1212 80.9737 17.7386C81.5646 17.3523 82.254 17.1591 83.0419 17.1591C83.4964 17.1591 83.9453 17.2348 84.3885 17.3864C84.8316 17.5379 85.2351 17.7841 85.5987 18.125C85.9623 18.4621 86.2521 18.9091 86.468 19.4659C86.6839 20.0227 86.7919 20.7083 86.7919 21.5227V22.0909H80.0646V20.9318H85.4282C85.4282 20.4394 85.3298 20 85.1328 19.6136C84.9396 19.2273 84.6631 18.9223 84.3032 18.6989C83.9472 18.4754 83.5267 18.3636 83.0419 18.3636C82.5078 18.3636 82.0457 18.4962 81.6555 18.7614C81.2691 19.0227 80.9718 19.3636 80.7635 19.7841C80.5551 20.2045 80.451 20.6553 80.451 21.1364V21.9091C80.451 22.5682 80.5646 23.1269 80.7919 23.5852C81.0229 24.0398 81.343 24.3864 81.7521 24.625C82.1612 24.8598 82.6366 24.9773 83.1782 24.9773C83.5305 24.9773 83.8487 24.928 84.1328 24.8295C84.4207 24.7273 84.6688 24.5758 84.8771 24.375C85.0854 24.1705 85.2464 23.9167 85.3601 23.6136L86.6555 23.9773C86.5191 24.4167 86.29 24.803 85.968 25.1364C85.646 25.4659 85.2483 25.7235 84.7748 25.9091C84.3013 26.0909 83.7691 26.1818 83.1782 26.1818ZM88.5116 29.2727V17.2727H89.8071V18.6591H89.9662C90.0647 18.5076 90.201 18.3144 90.3753 18.0795C90.5533 17.8409 90.8071 17.6288 91.1366 17.4432C91.47 17.2538 91.9207 17.1591 92.4889 17.1591C93.2238 17.1591 93.8715 17.3428 94.4321 17.7102C94.9927 18.0777 95.4302 18.5985 95.7446 19.2727C96.059 19.947 96.2162 20.7424 96.2162 21.6591C96.2162 22.5833 96.059 23.3845 95.7446 24.0625C95.4302 24.7367 94.9946 25.2595 94.4378 25.6307C93.881 25.9981 93.2389 26.1818 92.5116 26.1818C91.951 26.1818 91.5022 26.089 91.1651 25.9034C90.8279 25.714 90.5685 25.5 90.3866 25.2614C90.2048 25.0189 90.0647 24.8182 89.9662 24.6591H89.8526V29.2727H88.5116ZM89.8298 21.6364C89.8298 22.2955 89.9264 22.8769 90.1196 23.3807C90.3128 23.8807 90.595 24.2727 90.9662 24.5568C91.3374 24.8371 91.792 24.9773 92.3298 24.9773C92.8904 24.9773 93.3582 24.8295 93.7332 24.5341C94.112 24.2348 94.3961 23.8333 94.5855 23.3295C94.7787 22.822 94.8753 22.2576 94.8753 21.6364C94.8753 21.0227 94.7806 20.4697 94.5912 19.9773C94.4056 19.4811 94.1234 19.089 93.7446 18.8011C93.3696 18.5095 92.898 18.3636 92.3298 18.3636C91.7844 18.3636 91.326 18.5019 90.9548 18.7784C90.5836 19.0511 90.3033 19.4337 90.1139 19.9261C89.9245 20.4148 89.8298 20.9848 89.8298 21.6364ZM97.9417 26V17.2727H99.2826V21.0682H100.169L103.305 17.2727H105.033L101.51 21.4773L105.078 26H103.351L100.487 22.3182H99.2826V26H97.9417ZM108.784 26.2045C108.231 26.2045 107.729 26.1004 107.278 25.892C106.827 25.6799 106.469 25.375 106.204 24.9773C105.939 24.5758 105.806 24.0909 105.806 23.5227C105.806 23.0227 105.905 22.6174 106.102 22.3068C106.299 21.9924 106.562 21.7462 106.892 21.5682C107.221 21.3902 107.585 21.2576 107.982 21.1705C108.384 21.0795 108.787 21.0076 109.193 20.9545C109.723 20.8864 110.153 20.8352 110.482 20.8011C110.816 20.7633 111.058 20.7008 111.21 20.6136C111.365 20.5265 111.443 20.375 111.443 20.1591V20.1136C111.443 19.553 111.289 19.1174 110.982 18.8068C110.679 18.4962 110.219 18.3409 109.602 18.3409C108.962 18.3409 108.46 18.4811 108.096 18.7614C107.732 19.0417 107.477 19.3409 107.329 19.6591L106.056 19.2045C106.284 18.6742 106.587 18.2614 106.965 17.9659C107.348 17.6667 107.765 17.4583 108.215 17.3409C108.67 17.2197 109.117 17.1591 109.556 17.1591C109.837 17.1591 110.159 17.1932 110.522 17.2614C110.89 17.3258 111.244 17.4602 111.585 17.6648C111.929 17.8693 112.215 18.178 112.443 18.5909C112.67 19.0038 112.784 19.5568 112.784 20.25V26H111.443V24.8182H111.374C111.284 25.0076 111.132 25.2102 110.92 25.4261C110.708 25.642 110.426 25.8258 110.073 25.9773C109.721 26.1288 109.291 26.2045 108.784 26.2045ZM108.988 25C109.518 25 109.965 24.8958 110.329 24.6875C110.696 24.4792 110.973 24.2102 111.159 23.8807C111.348 23.5511 111.443 23.2045 111.443 22.8409V21.6136C111.386 21.6818 111.261 21.7443 111.068 21.8011C110.878 21.8542 110.659 21.9015 110.409 21.9432C110.162 21.9811 109.922 22.0152 109.687 22.0455C109.456 22.072 109.268 22.0947 109.124 22.1136C108.776 22.1591 108.45 22.233 108.147 22.3352C107.848 22.4337 107.606 22.5833 107.42 22.7841C107.238 22.9811 107.147 23.25 107.147 23.5909C107.147 24.0568 107.32 24.4091 107.664 24.6477C108.013 24.8826 108.454 25 108.988 25ZM119.911 20.3864V21.6364H114.82V20.3864H119.911ZM121.381 26V24.9773L125.222 20.7727C125.672 20.2803 126.044 19.8523 126.335 19.4886C126.627 19.1212 126.843 18.7765 126.983 18.4545C127.127 18.1288 127.199 17.7879 127.199 17.4318C127.199 17.0227 127.1 16.6686 126.904 16.3693C126.71 16.0701 126.445 15.839 126.108 15.6761C125.771 15.5133 125.392 15.4318 124.972 15.4318C124.525 15.4318 124.135 15.5246 123.801 15.7102C123.472 15.892 123.216 16.1477 123.034 16.4773C122.856 16.8068 122.767 17.1932 122.767 17.6364H121.426C121.426 16.9545 121.583 16.3561 121.898 15.8409C122.212 15.3258 122.64 14.9242 123.182 14.6364C123.727 14.3485 124.339 14.2045 125.017 14.2045C125.699 14.2045 126.303 14.3485 126.83 14.6364C127.356 14.9242 127.769 15.3125 128.068 15.8011C128.368 16.2898 128.517 16.8333 128.517 17.4318C128.517 17.8598 128.44 18.2784 128.284 18.6875C128.133 19.0928 127.868 19.5455 127.489 20.0455C127.114 20.5417 126.593 21.1477 125.926 21.8636L123.313 24.6591V24.75H128.722V26H121.381Z" fill="black"/>
<path fill-rule="evenodd" clip-rule="evenodd" d="M13.1546 11.3603C12.4835 11.0101 11.5741 11.0046 10.8977 11.354C8.30469 12.6932 5.95282 14.2286 3.89185 15.9316C3.57314 16.195 3.34696 16.5776 3.35082 17.0281C3.35466 17.4767 3.58544 17.8543 3.90222 18.1133C5.94607 19.7844 8.29988 21.3213 10.8454 22.6498C11.5165 23.0001 12.4259 23.0055 13.1024 22.6561C15.6953 21.317 18.0472 19.7815 20.1082 18.0785C20.4269 17.8152 20.6531 17.4325 20.6492 16.982C20.6453 16.5334 20.4146 16.1559 20.0978 15.8969C18.0539 14.2257 15.7001 12.6889 13.1546 11.3603ZM11.586 12.6868C11.8256 12.563 12.2193 12.5642 12.4606 12.6901C14.8899 13.958 17.1283 15.4167 19.0676 16.9923C17.1168 18.5932 14.885 20.0472 12.4141 21.3233C12.1744 21.4471 11.7807 21.4459 11.5394 21.32C9.11007 20.0521 6.87166 18.5934 4.93243 17.0178C6.88324 15.4169 9.11499 13.9629 11.586 12.6868Z" fill="black"/>
<path d="M21.197 20.6981C21.4164 21.0494 21.3094 21.5121 20.958 21.7315L14.8508 25.5444C14.0221 26.0618 12.9939 26.301 11.9999 26.301C11.006 26.3011 9.97773 26.062 9.14887 25.5447L3.10854 21.775C2.75714 21.5557 2.65006 21.093 2.86937 20.7416C3.08867 20.3902 3.55132 20.2831 3.90271 20.5024L9.94304 24.2722C10.4872 24.6118 11.2264 24.8011 11.9998 24.801C12.7733 24.801 13.5124 24.6116 14.0564 24.272L20.1637 20.4591C20.515 20.2397 20.9777 20.3467 21.197 20.6981Z" fill="black"/>
<path d="M21.197 24.4527C21.4164 24.8041 21.3094 25.2667 20.9581 25.4861L15.6692 28.789C14.6116 29.4495 13.2886 29.7602 11.9999 29.7603C10.7112 29.7604 9.38811 29.4498 8.33033 28.7895L3.10846 25.5296C2.75709 25.3103 2.65007 24.8476 2.86942 24.4963C3.08876 24.1449 3.55142 24.0379 3.90279 24.2572L9.12465 27.517C9.89767 27.9996 10.9316 28.2604 11.9998 28.2603C13.068 28.2602 14.1018 27.9994 14.8747 27.5167L20.1636 24.2139C20.5149 23.9945 20.9776 24.1014 21.197 24.4527Z" fill="black"/>
</svg>
