<svg width="129" height="40" viewBox="0 0 129 40" fill="none" xmlns="http://www.w3.org/2000/svg">
<path fill-rule="evenodd" clip-rule="evenodd" d="M10.738 11.25C9.96436 11.25 9.31904 11.8412 9.25148 12.6119C9.11024 14.2232 9.0745 15.8416 9.14436 17.4569C9.06003 17.4626 8.97571 17.4685 8.8914 17.4746L7.4019 17.5832C6.44985 17.6526 5.91764 18.7142 6.43163 19.5185C7.5278 21.2341 8.94026 22.7254 10.5937 23.9132L11.1904 24.3418C11.6743 24.6894 12.3259 24.6894 12.8097 24.3418L13.4065 23.9132C15.0599 22.7254 16.4724 21.2341 17.5685 19.5185C18.0825 18.7142 17.5503 17.6526 16.5983 17.5832L15.1088 17.4746C15.0245 17.4685 14.9401 17.4626 14.8558 17.4569C14.9257 15.8416 14.8899 14.2232 14.7487 12.6119C14.6811 11.8412 14.0358 11.25 13.2622 11.25H10.738ZM10.6816 18.1147C10.5679 16.3275 10.5891 14.5342 10.7451 12.75H13.255C13.4111 14.5342 13.4323 16.3275 13.3186 18.1147C13.3058 18.3151 13.374 18.5122 13.5077 18.662C13.6414 18.8117 13.8296 18.9016 14.0302 18.9114C14.3535 18.9274 14.6767 18.9471 14.9997 18.9707L16.0815 19.0495C15.1219 20.4628 13.9204 21.6971 12.5313 22.6949L12.0001 23.0765L11.4688 22.6949C10.0797 21.6971 8.87824 20.4628 7.9187 19.0495L9.00046 18.9707C9.32345 18.9471 9.64664 18.9274 9.96999 18.9114C10.1705 18.9016 10.3587 18.8117 10.4925 18.662C10.6262 18.5122 10.6943 18.3151 10.6816 18.1147Z" fill="black"/>
<path d="M5.75 25C5.75 24.5858 5.41421 24.25 5 24.25C4.58579 24.25 4.25 24.5858 4.25 25V27C4.25 27.9665 5.0335 28.75 6 28.75H18C18.9665 28.75 19.75 27.9665 19.75 27V25C19.75 24.5858 19.4142 24.25 19 24.25C18.5858 24.25 18.25 24.5858 18.25 25V27C18.25 27.1381 18.1381 27.25 18 27.25H6C5.86193 27.25 5.75 27.1381 5.75 27V25Z" fill="black"/>
<path d="M35.5682 24.0227L39.7727 17.2727H41.3182V26H39.9773V19.25L35.7955 26H34.2273V17.2727H35.5682V24.0227ZM48.2269 24.1818L51.2723 17.2727H52.5451L48.7723 26H47.6814L43.9769 17.2727H45.2269L48.2269 24.1818ZM44.7951 17.2727V26H43.4541V17.2727H44.7951ZM51.6587 26V17.2727H52.9996V26H51.6587ZM55.1341 26V17.2727H61.9978V26H60.6569V18.5227H56.4751V26H55.1341ZM65.1039 26.0909C64.8236 26.0909 64.5831 25.9905 64.3823 25.7898C64.1816 25.589 64.0812 25.3485 64.0812 25.0682C64.0812 24.7879 64.1816 24.5473 64.3823 24.3466C64.5831 24.1458 64.8236 24.0455 65.1039 24.0455C65.3842 24.0455 65.6248 24.1458 65.8255 24.3466C66.0263 24.5473 66.1266 24.7879 66.1266 25.0682C66.1266 25.2538 66.0793 25.4242 65.9846 25.5795C65.8937 25.7348 65.7706 25.8598 65.6153 25.9545C65.4638 26.0455 65.2933 26.0909 65.1039 26.0909ZM77.7584 18H76.3493C76.2659 17.5947 76.1201 17.2386 75.9118 16.9318C75.7072 16.625 75.4572 16.3674 75.1618 16.1591C74.8701 15.947 74.5462 15.7879 74.1902 15.6818C73.8341 15.5758 73.4629 15.5227 73.0765 15.5227C72.372 15.5227 71.7337 15.7008 71.1618 16.0568C70.5936 16.4129 70.1409 16.9375 69.8038 17.6307C69.4705 18.3239 69.3038 19.1742 69.3038 20.1818C69.3038 21.1894 69.4705 22.0398 69.8038 22.733C70.1409 23.4261 70.5936 23.9508 71.1618 24.3068C71.7337 24.6629 72.372 24.8409 73.0765 24.8409C73.4629 24.8409 73.8341 24.7879 74.1902 24.6818C74.5462 24.5758 74.8701 24.4186 75.1618 24.2102C75.4572 23.9981 75.7072 23.7386 75.9118 23.4318C76.1201 23.1212 76.2659 22.7652 76.3493 22.3636H77.7584C77.6523 22.9583 77.4591 23.4905 77.1788 23.9602C76.8985 24.4299 76.55 24.8295 76.1334 25.1591C75.7167 25.4848 75.2489 25.733 74.7299 25.9034C74.2148 26.0739 73.6637 26.1591 73.0765 26.1591C72.0841 26.1591 71.2015 25.9167 70.4288 25.4318C69.6561 24.947 69.0481 24.2576 68.6049 23.3636C68.1618 22.4697 67.9402 21.4091 67.9402 20.1818C67.9402 18.9545 68.1618 17.8939 68.6049 17C69.0481 16.1061 69.6561 15.4167 70.4288 14.9318C71.2015 14.447 72.0841 14.2045 73.0765 14.2045C73.6637 14.2045 74.2148 14.2898 74.7299 14.4602C75.2489 14.6307 75.7167 14.8807 76.1334 15.2102C76.55 15.536 76.8985 15.9337 77.1788 16.4034C77.4591 16.8693 77.6523 17.4015 77.7584 18ZM79.5335 26V17.2727H83.1017C84.0411 17.2727 84.7873 17.4848 85.3403 17.9091C85.8934 18.3333 86.1699 18.8939 86.1699 19.5909C86.1699 20.1212 86.0127 20.5322 85.6983 20.8239C85.3839 21.1117 84.9805 21.3068 84.4881 21.4091C84.81 21.4545 85.1225 21.5682 85.4256 21.75C85.7324 21.9318 85.9862 22.1818 86.1869 22.5C86.3877 22.8144 86.4881 23.2008 86.4881 23.6591C86.4881 24.1061 86.3744 24.5057 86.1472 24.858C85.9199 25.2102 85.5941 25.4886 85.1699 25.6932C84.7456 25.8977 84.2381 26 83.6472 26H79.5335ZM80.8063 24.7727H83.6472C84.1093 24.7727 84.471 24.6629 84.7324 24.4432C84.9938 24.2235 85.1244 23.9242 85.1244 23.5455C85.1244 23.0947 84.9938 22.7405 84.7324 22.483C84.471 22.2216 84.1093 22.0909 83.6472 22.0909H80.8063V24.7727ZM80.8063 20.9318H83.1017C83.4616 20.9318 83.7703 20.8826 84.0278 20.7841C84.2854 20.6818 84.4824 20.5379 84.6188 20.3523C84.7589 20.1629 84.829 19.9394 84.829 19.6818C84.829 19.3144 84.6756 19.0265 84.3688 18.8182C84.0619 18.6061 83.6396 18.5 83.1017 18.5H80.8063V20.9318ZM88.1752 26V24.9773L92.0161 20.7727C92.4668 20.2803 92.8381 19.8523 93.1297 19.4886C93.4214 19.1212 93.6373 18.7765 93.7774 18.4545C93.9214 18.1288 93.9934 17.7879 93.9934 17.4318C93.9934 17.0227 93.8949 16.6686 93.6979 16.3693C93.5047 16.0701 93.2396 15.839 92.9024 15.6761C92.5653 15.5133 92.1865 15.4318 91.7661 15.4318C91.3191 15.4318 90.929 15.5246 90.5956 15.7102C90.2661 15.892 90.0104 16.1477 89.8286 16.4773C89.6506 16.8068 89.5615 17.1932 89.5615 17.6364H88.2206C88.2206 16.9545 88.3778 16.3561 88.6922 15.8409C89.0066 15.3258 89.4346 14.9242 89.9763 14.6364C90.5218 14.3485 91.1335 14.2045 91.8115 14.2045C92.4934 14.2045 93.0975 14.3485 93.624 14.6364C94.1506 14.9242 94.5634 15.3125 94.8627 15.8011C95.1619 16.2898 95.3115 16.8333 95.3115 17.4318C95.3115 17.8598 95.2339 18.2784 95.0786 18.6875C94.9271 19.0928 94.6619 19.5455 94.2831 20.0455C93.9081 20.5417 93.3873 21.1477 92.7206 21.8636L90.107 24.6591V24.75H95.5161V26H88.1752ZM98.5427 26.0909C98.2624 26.0909 98.0218 25.9905 97.8211 25.7898C97.6203 25.589 97.5199 25.3485 97.5199 25.0682C97.5199 24.7879 97.6203 24.5473 97.8211 24.3466C98.0218 24.1458 98.2624 24.0455 98.5427 24.0455C98.823 24.0455 99.0635 24.1458 99.2643 24.3466C99.465 24.5473 99.5654 24.7879 99.5654 25.0682C99.5654 25.2538 99.518 25.4242 99.4234 25.5795C99.3324 25.7348 99.2093 25.8598 99.054 25.9545C98.9025 26.0455 98.7321 26.0909 98.5427 26.0909ZM102.652 17.2727L104.743 20.8409L106.833 17.2727H108.379L105.561 21.6364L108.379 26H106.833L104.743 22.6136L102.652 26H101.106L103.879 21.6364L101.106 17.2727H102.652ZM111.313 14.3636V26H109.972V14.3636H111.313ZM119.631 19.2273L118.426 19.5682C118.351 19.3674 118.239 19.1723 118.091 18.983C117.947 18.7898 117.75 18.6307 117.5 18.5057C117.25 18.3807 116.93 18.3182 116.54 18.3182C116.006 18.3182 115.561 18.4413 115.205 18.6875C114.853 18.9299 114.676 19.2386 114.676 19.6136C114.676 19.947 114.798 20.2102 115.04 20.4034C115.282 20.5966 115.661 20.7576 116.176 20.8864L117.472 21.2045C118.252 21.3939 118.834 21.6837 119.216 22.0739C119.599 22.4602 119.79 22.9583 119.79 23.5682C119.79 24.0682 119.646 24.5152 119.358 24.9091C119.074 25.303 118.676 25.6136 118.165 25.8409C117.654 26.0682 117.059 26.1818 116.381 26.1818C115.491 26.1818 114.754 25.9886 114.171 25.6023C113.587 25.2159 113.218 24.6515 113.063 23.9091L114.336 23.5909C114.457 24.0606 114.686 24.4129 115.023 24.6477C115.364 24.8826 115.809 25 116.358 25C116.983 25 117.479 24.8674 117.847 24.6023C118.218 24.3333 118.404 24.0114 118.404 23.6364C118.404 23.3333 118.298 23.0795 118.086 22.875C117.873 22.6667 117.548 22.5114 117.108 22.4091L115.654 22.0682C114.854 21.8788 114.267 21.5852 113.892 21.1875C113.521 20.786 113.336 20.2841 113.336 19.6818C113.336 19.1894 113.474 18.7538 113.75 18.375C114.031 17.9962 114.411 17.6989 114.892 17.483C115.377 17.267 115.926 17.1591 116.54 17.1591C117.404 17.1591 118.082 17.3485 118.574 17.7273C119.07 18.1061 119.423 18.6061 119.631 19.2273ZM122.489 17.2727L124.579 20.8409L126.67 17.2727H128.216L125.398 21.6364L128.216 26H126.67L124.579 22.6136L122.489 26H120.943L123.716 21.6364L120.943 17.2727H122.489Z" fill="black"/>
</svg>
