<svg width="127" height="40" viewBox="0 0 127 40" fill="none" xmlns="http://www.w3.org/2000/svg">
<path d="M35.2273 29.2727V17.2727H36.5227V18.6591H36.6818C36.7803 18.5076 36.9167 18.3144 37.0909 18.0795C37.2689 17.8409 37.5227 17.6288 37.8523 17.4432C38.1856 17.2538 38.6364 17.1591 39.2045 17.1591C39.9394 17.1591 40.5871 17.3428 41.1477 17.7102C41.7083 18.0777 42.1458 18.5985 42.4602 19.2727C42.7746 19.947 42.9318 20.7424 42.9318 21.6591C42.9318 22.5833 42.7746 23.3845 42.4602 24.0625C42.1458 24.7367 41.7102 25.2595 41.1534 25.6307C40.5966 25.9981 39.9545 26.1818 39.2273 26.1818C38.6667 26.1818 38.2178 26.089 37.8807 25.9034C37.5436 25.714 37.2841 25.5 37.1023 25.2614C36.9205 25.0189 36.7803 24.8182 36.6818 24.6591H36.5682V29.2727H35.2273ZM36.5455 21.6364C36.5455 22.2955 36.642 22.8769 36.8352 23.3807C37.0284 23.8807 37.3106 24.2727 37.6818 24.5568C38.053 24.8371 38.5076 24.9773 39.0455 24.9773C39.6061 24.9773 40.0739 24.8295 40.4489 24.5341C40.8277 24.2348 41.1117 23.8333 41.3011 23.3295C41.4943 22.822 41.5909 22.2576 41.5909 21.6364C41.5909 21.0227 41.4962 20.4697 41.3068 19.9773C41.1212 19.4811 40.839 19.089 40.4602 18.8011C40.0852 18.5095 39.6136 18.3636 39.0455 18.3636C38.5 18.3636 38.0417 18.5019 37.6705 18.7784C37.2992 19.0511 37.0189 19.4337 36.8295 19.9261C36.6402 20.4148 36.5455 20.9848 36.5455 21.6364ZM48.3164 26.1818C47.4755 26.1818 46.7501 25.9962 46.1402 25.625C45.5342 25.25 45.0664 24.7273 44.7368 24.0568C44.4111 23.3826 44.2482 22.5985 44.2482 21.7045C44.2482 20.8106 44.4111 20.0227 44.7368 19.3409C45.0664 18.6553 45.5247 18.1212 46.1118 17.7386C46.7027 17.3523 47.3921 17.1591 48.18 17.1591C48.6345 17.1591 49.0834 17.2348 49.5266 17.3864C49.9698 17.5379 50.3732 17.7841 50.7368 18.125C51.1005 18.4621 51.3902 18.9091 51.6061 19.4659C51.822 20.0227 51.93 20.7083 51.93 21.5227V22.0909H45.2027V20.9318H50.5664C50.5664 20.4394 50.4679 20 50.2709 19.6136C50.0777 19.2273 49.8012 18.9223 49.4414 18.6989C49.0853 18.4754 48.6648 18.3636 48.18 18.3636C47.6459 18.3636 47.1838 18.4962 46.7936 18.7614C46.4073 19.0227 46.1099 19.3636 45.9016 19.7841C45.6933 20.2045 45.5891 20.6553 45.5891 21.1364V21.9091C45.5891 22.5682 45.7027 23.1269 45.93 23.5852C46.1611 24.0398 46.4811 24.3864 46.8902 24.625C47.2993 24.8598 47.7747 24.9773 48.3164 24.9773C48.6686 24.9773 48.9868 24.928 49.2709 24.8295C49.5588 24.7273 49.8069 24.5758 50.0152 24.375C50.2236 24.1705 50.3845 23.9167 50.4982 23.6136L51.7936 23.9773C51.6573 24.4167 51.4281 24.803 51.1061 25.1364C50.7842 25.4659 50.3864 25.7235 49.913 25.9091C49.4395 26.0909 48.9073 26.1818 48.3164 26.1818ZM52.718 28.5V24.75H53.4452C53.6233 24.5644 53.7767 24.3636 53.9055 24.1477C54.0342 23.9318 54.146 23.6761 54.2407 23.3807C54.3392 23.0814 54.4225 22.7178 54.4907 22.2898C54.5589 21.858 54.6195 21.3371 54.6725 20.7273L54.968 17.2727H60.5134V24.75H61.8543V28.5H60.5134V26H54.0589V28.5H52.718ZM54.968 24.75H59.1725V18.5227H56.218L55.9907 20.7273C55.896 21.6402 55.7786 22.4375 55.6384 23.1193C55.4983 23.8011 55.2748 24.3447 54.968 24.75ZM65.8823 26.2045C65.3293 26.2045 64.8274 26.1004 64.3766 25.892C63.9259 25.6799 63.5679 25.375 63.3028 24.9773C63.0376 24.5758 62.9051 24.0909 62.9051 23.5227C62.9051 23.0227 63.0035 22.6174 63.2005 22.3068C63.3975 21.9924 63.6607 21.7462 63.9903 21.5682C64.3198 21.3902 64.6835 21.2576 65.0812 21.1705C65.4827 21.0795 65.8861 21.0076 66.2914 20.9545C66.8217 20.8864 67.2516 20.8352 67.5812 20.8011C67.9145 20.7633 68.157 20.7008 68.3085 20.6136C68.4638 20.5265 68.5414 20.375 68.5414 20.1591V20.1136C68.5414 19.553 68.388 19.1174 68.0812 18.8068C67.7782 18.4962 67.3179 18.3409 66.7005 18.3409C66.0604 18.3409 65.5585 18.4811 65.1948 18.7614C64.8312 19.0417 64.5755 19.3409 64.4278 19.6591L63.1551 19.2045C63.3823 18.6742 63.6854 18.2614 64.0641 17.9659C64.4467 17.6667 64.8634 17.4583 65.3141 17.3409C65.7687 17.2197 66.2157 17.1591 66.6551 17.1591C66.9354 17.1591 67.2573 17.1932 67.621 17.2614C67.9884 17.3258 68.3426 17.4602 68.6835 17.6648C69.0282 17.8693 69.3141 18.178 69.5414 18.5909C69.7687 19.0038 69.8823 19.5568 69.8823 20.25V26H68.5414V24.8182H68.4732C68.3823 25.0076 68.2308 25.2102 68.0187 25.4261C67.8066 25.642 67.5244 25.8258 67.1721 25.9773C66.8198 26.1288 66.3899 26.2045 65.8823 26.2045ZM66.0869 25C66.6172 25 67.0641 24.8958 67.4278 24.6875C67.7952 24.4792 68.0717 24.2102 68.2573 23.8807C68.4467 23.5511 68.5414 23.2045 68.5414 22.8409V21.6136C68.4846 21.6818 68.3596 21.7443 68.1664 21.8011C67.977 21.8542 67.7573 21.9015 67.5073 21.9432C67.2611 21.9811 67.0206 22.0152 66.7857 22.0455C66.5547 22.072 66.3672 22.0947 66.2232 22.1136C65.8748 22.1591 65.549 22.233 65.246 22.3352C64.9467 22.4337 64.7043 22.5833 64.5187 22.7841C64.3369 22.9811 64.246 23.25 64.246 23.5909C64.246 24.0568 64.4183 24.4091 64.763 24.6477C65.1115 24.8826 65.5528 25 66.0869 25ZM72.0098 26V17.2727H73.3507V21.0682H74.237L77.3734 17.2727H79.1007L75.578 21.4773L79.1461 26H77.4189L74.5552 22.3182H73.3507V26H72.0098ZM79.7835 18.5227V17.2727H86.8744V18.5227H84.0108V26H82.6699V18.5227H79.7835ZM93.0573 20.3864V21.6364H87.9664V20.3864H93.0573ZM94.1435 18.5227V17.2727H101.234V18.5227H98.3708V26H97.0299V18.5227H94.1435ZM104.029 20.4318H106.529C107.552 20.4318 108.334 20.6913 108.876 21.2102C109.418 21.7292 109.689 22.3864 109.689 23.1818C109.689 23.7045 109.567 24.1799 109.325 24.608C109.083 25.0322 108.726 25.3712 108.257 25.625C107.787 25.875 107.211 26 106.529 26H102.87V17.2727H104.211V24.75H106.529C107.06 24.75 107.495 24.6098 107.836 24.3295C108.177 24.0492 108.348 23.6894 108.348 23.25C108.348 22.7879 108.177 22.411 107.836 22.1193C107.495 21.8277 107.06 21.6818 106.529 21.6818H104.029V20.4318ZM116.41 20.3864V21.6364H111.319V20.3864H116.41ZM117.88 26V24.9773L121.72 20.7727C122.171 20.2803 122.542 19.8523 122.834 19.4886C123.126 19.1212 123.342 18.7765 123.482 18.4545C123.626 18.1288 123.698 17.7879 123.698 17.4318C123.698 17.0227 123.599 16.6686 123.402 16.3693C123.209 16.0701 122.944 15.839 122.607 15.6761C122.27 15.5133 121.891 15.4318 121.47 15.4318C121.023 15.4318 120.633 15.5246 120.3 15.7102C119.97 15.892 119.715 16.1477 119.533 16.4773C119.355 16.8068 119.266 17.1932 119.266 17.6364H117.925C117.925 16.9545 118.082 16.3561 118.397 15.8409C118.711 15.3258 119.139 14.9242 119.681 14.6364C120.226 14.3485 120.838 14.2045 121.516 14.2045C122.198 14.2045 122.802 14.3485 123.328 14.6364C123.855 14.9242 124.268 15.3125 124.567 15.8011C124.866 16.2898 125.016 16.8333 125.016 17.4318C125.016 17.8598 124.938 18.2784 124.783 18.6875C124.631 19.0928 124.366 19.5455 123.988 20.0455C123.613 20.5417 123.092 21.1477 122.425 21.8636L119.811 24.6591V24.75H125.22V26H117.88Z" fill="black"/>
<path fill-rule="evenodd" clip-rule="evenodd" d="M15.1369 11.4697C14.9963 11.329 14.8055 11.25 14.6066 11.25C14.4077 11.25 14.2169 11.329 14.0763 11.4697L4.88388 20.6621C4.78965 20.7563 4.72223 20.8739 4.68856 21.0028L3.68856 24.8313C3.62127 25.0889 3.69561 25.3629 3.88388 25.5511C4.07215 25.7394 4.34614 25.8138 4.60375 25.7465L8.43218 24.7465C8.56111 24.7128 8.67874 24.6454 8.77297 24.5511L17.9654 15.3588C18.2582 15.0659 18.2582 14.591 17.9654 14.2981L15.1369 11.4697ZM6.08843 21.5788L14.6066 13.0607L16.3744 14.8284L7.8562 23.3466L5.46344 23.9716L6.08843 21.5788Z" fill="black"/>
<path d="M4 27.25C3.58579 27.25 3.25 27.5858 3.25 28C3.25 28.4142 3.58579 28.75 4 28.75H19C19.4142 28.75 19.75 28.4142 19.75 28C19.75 27.5858 19.4142 27.25 19 27.25H4Z" fill="black"/>
</svg>
