<svg width="125" height="40" viewBox="0 0 125 40" fill="none" xmlns="http://www.w3.org/2000/svg">
<path d="M6 10.25C5.58579 10.25 5.25 10.5858 5.25 11V11.75H1C0.585786 11.75 0.25 12.0858 0.25 12.5C0.25 12.9142 0.585786 13.25 1 13.25H15C15.4142 13.25 15.75 12.9142 15.75 12.5C15.75 12.0858 15.4142 11.75 15 11.75H10.75V11C10.75 10.5858 10.4142 10.25 10 10.25H6Z" fill="black"/>
<path d="M6 18.65C6.41421 18.65 6.75 18.9858 6.75 19.4L6.75 26.4C6.75 26.8142 6.41421 27.15 6 27.15C5.58579 27.15 5.25 26.8142 5.25 26.4L5.25 19.4C5.25 18.9858 5.58579 18.65 6 18.65Z" fill="black"/>
<path d="M10.75 19.4C10.75 18.9858 10.4142 18.65 10 18.65C9.58579 18.65 9.25 18.9858 9.25 19.4V26.4C9.25 26.8142 9.58579 27.15 10 27.15C10.4142 27.15 10.75 26.8142 10.75 26.4V19.4Z" fill="black"/>
<path fill-rule="evenodd" clip-rule="evenodd" d="M1.99142 15.9172C2.03363 15.5374 2.35468 15.25 2.73684 15.25H13.2632C13.6453 15.25 13.9664 15.5374 14.0086 15.9172L14.2087 17.7185C14.5715 20.9838 14.5715 24.2793 14.2087 27.5446L14.189 27.722C14.045 29.0181 13.0404 30.0517 11.7489 30.2325C9.26176 30.5807 6.73823 30.5807 4.25108 30.2325C2.95954 30.0517 1.955 29.0181 1.81098 27.722L1.79128 27.5446C1.42846 24.2793 1.42846 20.9838 1.79128 17.7185L1.99142 15.9172ZM3.40812 16.75L3.2821 17.8842C2.93152 21.0394 2.93152 24.2238 3.2821 27.379L3.3018 27.5563C3.37011 28.171 3.84652 28.6612 4.45905 28.747C6.80822 29.0758 9.19177 29.0758 11.5409 28.747C12.1535 28.6612 12.6299 28.171 12.6982 27.5563L12.7179 27.379C13.0685 24.2238 13.0685 21.0394 12.7179 17.8842L12.5919 16.75H3.40812Z" fill="black"/>
<path d="M30.0909 29.2727C29.8636 29.2727 29.661 29.2538 29.483 29.2159C29.3049 29.1818 29.1818 29.1477 29.1136 29.1136L29.4545 27.9318C29.7803 28.0152 30.0682 28.0455 30.3182 28.0227C30.5682 28 30.7898 27.8883 30.983 27.6875C31.1799 27.4905 31.3598 27.1705 31.5227 26.7273L31.7727 26.0455L28.5455 17.2727H30L32.4091 24.2273H32.5L34.9091 17.2727H36.3636L32.6591 27.2727C32.4924 27.7235 32.286 28.0966 32.0398 28.392C31.7936 28.6913 31.5076 28.9129 31.1818 29.0568C30.8598 29.2008 30.4962 29.2727 30.0909 29.2727ZM36.1473 28.5V24.75H36.8746C37.0526 24.5644 37.206 24.3636 37.3348 24.1477C37.4636 23.9318 37.5754 23.6761 37.6701 23.3807C37.7685 23.0814 37.8519 22.7178 37.9201 22.2898C37.9882 21.858 38.0488 21.3371 38.1019 20.7273L38.3973 17.2727H43.9428V24.75H45.2837V28.5H43.9428V26H37.4882V28.5H36.1473ZM38.3973 24.75H42.6019V18.5227H39.6473L39.4201 20.7273C39.3254 21.6402 39.2079 22.4375 39.0678 23.1193C38.9276 23.8011 38.7041 24.3447 38.3973 24.75ZM49.3117 26.2045C48.7587 26.2045 48.2568 26.1004 47.806 25.892C47.3553 25.6799 46.9973 25.375 46.7322 24.9773C46.467 24.5758 46.3344 24.0909 46.3344 23.5227C46.3344 23.0227 46.4329 22.6174 46.6299 22.3068C46.8269 21.9924 47.0901 21.7462 47.4197 21.5682C47.7492 21.3902 48.1128 21.2576 48.5106 21.1705C48.9121 21.0795 49.3155 21.0076 49.7208 20.9545C50.2511 20.8864 50.681 20.8352 51.0106 20.8011C51.3439 20.7633 51.5863 20.7008 51.7378 20.6136C51.8931 20.5265 51.9708 20.375 51.9708 20.1591V20.1136C51.9708 19.553 51.8174 19.1174 51.5106 18.8068C51.2075 18.4962 50.7473 18.3409 50.1299 18.3409C49.4897 18.3409 48.9878 18.4811 48.6242 18.7614C48.2606 19.0417 48.0049 19.3409 47.8572 19.6591L46.5844 19.2045C46.8117 18.6742 47.1147 18.2614 47.4935 17.9659C47.8761 17.6667 48.2928 17.4583 48.7435 17.3409C49.1981 17.2197 49.645 17.1591 50.0844 17.1591C50.3647 17.1591 50.6867 17.1932 51.0503 17.2614C51.4178 17.3258 51.7719 17.4602 52.1128 17.6648C52.4575 17.8693 52.7435 18.178 52.9708 18.5909C53.1981 19.0038 53.3117 19.5568 53.3117 20.25V26H51.9708V24.8182H51.9026C51.8117 25.0076 51.6602 25.2102 51.4481 25.4261C51.2359 25.642 50.9538 25.8258 50.6015 25.9773C50.2492 26.1288 49.8193 26.2045 49.3117 26.2045ZM49.5163 25C50.0466 25 50.4935 24.8958 50.8572 24.6875C51.2246 24.4792 51.5011 24.2102 51.6867 23.8807C51.8761 23.5511 51.9708 23.2045 51.9708 22.8409V21.6136C51.914 21.6818 51.789 21.7443 51.5958 21.8011C51.4064 21.8542 51.1867 21.9015 50.9367 21.9432C50.6905 21.9811 50.45 22.0152 50.2151 22.0455C49.9841 22.072 49.7966 22.0947 49.6526 22.1136C49.3041 22.1591 48.9784 22.233 48.6753 22.3352C48.3761 22.4337 48.1337 22.5833 47.9481 22.7841C47.7663 22.9811 47.6753 23.25 47.6753 23.5909C47.6753 24.0568 47.8477 24.4091 48.1924 24.6477C48.5409 24.8826 48.9822 25 49.5163 25ZM54.6664 26V24.75H54.9846C55.246 24.75 55.4638 24.6989 55.638 24.5966C55.8123 24.4905 55.9524 24.3068 56.0585 24.0455C56.1683 23.7803 56.2516 23.4129 56.3085 22.9432C56.3691 22.4697 56.4126 21.8674 56.4391 21.1364L56.5982 17.2727H62.4164V26H61.0755V18.5227H57.871L57.7346 21.6364C57.7043 22.3523 57.6399 22.983 57.5414 23.5284C57.4467 24.0701 57.3009 24.5246 57.1039 24.892C56.9107 25.2595 56.6532 25.536 56.3312 25.7216C56.0092 25.9072 55.6058 26 55.121 26H54.6664ZM65.5339 26.0909C65.2536 26.0909 65.0131 25.9905 64.8123 25.7898C64.6116 25.589 64.5112 25.3485 64.5112 25.0682C64.5112 24.7879 64.6116 24.5473 64.8123 24.3466C65.0131 24.1458 65.2536 24.0455 65.5339 24.0455C65.8142 24.0455 66.0548 24.1458 66.2555 24.3466C66.4563 24.5473 66.5566 24.7879 66.5566 25.0682C66.5566 25.2538 66.5093 25.4242 66.4146 25.5795C66.3237 25.7348 66.2006 25.8598 66.0453 25.9545C65.8938 26.0455 65.7233 26.0909 65.5339 26.0909ZM80.8438 26.1591C80.3665 26.1515 79.8893 26.0606 79.412 25.8864C78.9347 25.7121 78.4991 25.4186 78.1052 25.0057C77.7112 24.589 77.3949 24.0265 77.1563 23.3182C76.9177 22.6061 76.7984 21.7121 76.7984 20.6364C76.7984 19.6061 76.8949 18.6932 77.0881 17.8977C77.2813 17.0985 77.5616 16.4261 77.929 15.8807C78.2965 15.3314 78.7396 14.9148 79.2586 14.6307C79.7813 14.3466 80.3703 14.2045 81.0256 14.2045C81.6771 14.2045 82.2567 14.3352 82.7643 14.5966C83.2756 14.8542 83.6923 15.214 84.0143 15.6761C84.3362 16.1383 84.5446 16.6705 84.6393 17.2727H83.2529C83.1241 16.75 82.8741 16.3163 82.5029 15.9716C82.1317 15.6269 81.6393 15.4545 81.0256 15.4545C80.1241 15.4545 79.4139 15.8466 78.8949 16.6307C78.3798 17.4148 78.1203 18.5152 78.1165 19.9318H78.2074C78.4196 19.6098 78.6715 19.3352 78.9631 19.108C79.2586 18.8769 79.5843 18.6989 79.9404 18.5739C80.2965 18.4489 80.6734 18.3864 81.0711 18.3864C81.7377 18.3864 82.3476 18.553 82.9006 18.8864C83.4537 19.2159 83.8968 19.6723 84.2302 20.2557C84.5635 20.8352 84.7302 21.5 84.7302 22.25C84.7302 22.9697 84.5692 23.6288 84.2472 24.2273C83.9252 24.822 83.4726 25.2955 82.8893 25.6477C82.3097 25.9962 81.6279 26.1667 80.8438 26.1591ZM80.8438 24.9091C81.3211 24.9091 81.7491 24.7898 82.1279 24.5511C82.5105 24.3125 82.8116 23.9924 83.0313 23.5909C83.2548 23.1894 83.3665 22.7424 83.3665 22.25C83.3665 21.7689 83.2586 21.3314 83.0427 20.9375C82.8305 20.5398 82.537 20.2235 82.162 19.9886C81.7908 19.7538 81.3665 19.6364 80.8893 19.6364C80.5294 19.6364 80.1942 19.7083 79.8836 19.8523C79.573 19.9924 79.3002 20.1856 79.0654 20.4318C78.8343 20.678 78.6525 20.9602 78.5199 21.2784C78.3874 21.5928 78.3211 21.9242 78.3211 22.2727C78.3211 22.7348 78.429 23.1667 78.6449 23.5682C78.8646 23.9697 79.1639 24.2936 79.5427 24.5398C79.9252 24.786 80.359 24.9091 80.8438 24.9091ZM90.44 26.1591C89.5839 26.1591 88.8548 25.9261 88.2525 25.4602C87.6502 24.9905 87.19 24.3106 86.8718 23.4205C86.5536 22.5265 86.3945 21.447 86.3945 20.1818C86.3945 18.9242 86.5536 17.8504 86.8718 16.9602C87.1938 16.0663 87.6559 15.3845 88.2582 14.9148C88.8642 14.4413 89.5915 14.2045 90.44 14.2045C91.2885 14.2045 92.0139 14.4413 92.6161 14.9148C93.2222 15.3845 93.6843 16.0663 94.0025 16.9602C94.3245 17.8504 94.4855 18.9242 94.4855 20.1818C94.4855 21.447 94.3264 22.5265 94.0082 23.4205C93.69 24.3106 93.2298 24.9905 92.6275 25.4602C92.0252 25.9261 91.2961 26.1591 90.44 26.1591ZM90.44 24.9091C91.2885 24.9091 91.9476 24.5 92.4173 23.6818C92.887 22.8636 93.1218 21.697 93.1218 20.1818C93.1218 19.1742 93.0139 18.3163 92.798 17.608C92.5858 16.8996 92.279 16.3598 91.8775 15.9886C91.4798 15.6174 91.0006 15.4318 90.44 15.4318C89.5991 15.4318 88.9419 15.8466 88.4684 16.6761C87.9949 17.5019 87.7582 18.6705 87.7582 20.1818C87.7582 21.1894 87.8642 22.0455 88.0764 22.75C88.2885 23.4545 88.5934 23.9905 88.9911 24.358C89.3927 24.7254 89.8756 24.9091 90.44 24.9091ZM96.9183 26.0909C96.638 26.0909 96.3975 25.9905 96.1967 25.7898C95.9959 25.589 95.8956 25.3485 95.8956 25.0682C95.8956 24.7879 95.9959 24.5473 96.1967 24.3466C96.3975 24.1458 96.638 24.0455 96.9183 24.0455C97.1986 24.0455 97.4391 24.1458 97.6399 24.3466C97.8406 24.5473 97.941 24.7879 97.941 25.0682C97.941 25.2538 97.8937 25.4242 97.799 25.5795C97.7081 25.7348 97.585 25.8598 97.4297 25.9545C97.2781 26.0455 97.1077 26.0909 96.9183 26.0909ZM101.027 17.2727L103.118 20.8409L105.209 17.2727H106.755L103.936 21.6364L106.755 26H105.209L103.118 22.6136L101.027 26H99.4818L102.255 21.6364L99.4818 17.2727H101.027ZM108.348 26V17.2727H109.643V18.6364H109.757C109.939 18.1705 110.232 17.8087 110.638 17.5511C111.043 17.2898 111.53 17.1591 112.098 17.1591C112.674 17.1591 113.153 17.2898 113.535 17.5511C113.922 17.8087 114.223 18.1705 114.439 18.6364H114.53C114.753 18.1856 115.088 17.8277 115.535 17.5625C115.982 17.2936 116.518 17.1591 117.143 17.1591C117.924 17.1591 118.562 17.4034 119.058 17.892C119.554 18.3769 119.802 19.1326 119.802 20.1591V26H118.462V20.1591C118.462 19.5152 118.285 19.0549 117.933 18.7784C117.581 18.5019 117.166 18.3636 116.689 18.3636C116.075 18.3636 115.6 18.5492 115.263 18.9205C114.926 19.2879 114.757 19.7538 114.757 20.3182V26H113.393V20.0227C113.393 19.5265 113.232 19.1269 112.91 18.8239C112.588 18.517 112.174 18.3636 111.666 18.3636C111.318 18.3636 110.992 18.4564 110.689 18.642C110.39 18.8277 110.147 19.0852 109.962 19.4148C109.78 19.7405 109.689 20.1174 109.689 20.5455V26H108.348ZM123.275 14.3636V26H121.934V14.3636H123.275Z" fill="black"/>
</svg>
