<svg width="141" height="40" viewBox="0 0 141 40" fill="none" xmlns="http://www.w3.org/2000/svg">
<path d="M38.2273 20.1818C38.2273 21.4091 38.0057 22.4697 37.5625 23.3636C37.1193 24.2576 36.5114 24.947 35.7386 25.4318C34.9659 25.9167 34.0833 26.1591 33.0909 26.1591C32.0985 26.1591 31.2159 25.9167 30.4432 25.4318C29.6705 24.947 29.0625 24.2576 28.6193 23.3636C28.1761 22.4697 27.9545 21.4091 27.9545 20.1818C27.9545 18.9545 28.1761 17.8939 28.6193 17C29.0625 16.1061 29.6705 15.4167 30.4432 14.9318C31.2159 14.447 32.0985 14.2045 33.0909 14.2045C34.0833 14.2045 34.9659 14.447 35.7386 14.9318C36.5114 15.4167 37.1193 16.1061 37.5625 17C38.0057 17.8939 38.2273 18.9545 38.2273 20.1818ZM36.8636 20.1818C36.8636 19.1742 36.6951 18.3239 36.358 17.6307C36.0246 16.9375 35.572 16.4129 35 16.0568C34.4318 15.7008 33.7955 15.5227 33.0909 15.5227C32.3864 15.5227 31.7481 15.7008 31.1761 16.0568C30.608 16.4129 30.1553 16.9375 29.8182 17.6307C29.4848 18.3239 29.3182 19.1742 29.3182 20.1818C29.3182 21.1894 29.4848 22.0398 29.8182 22.733C30.1553 23.4261 30.608 23.9508 31.1761 24.3068C31.7481 24.6629 32.3864 24.8409 33.0909 24.8409C33.7955 24.8409 34.4318 24.6629 35 24.3068C35.572 23.9508 36.0246 23.4261 36.358 22.733C36.6951 22.0398 36.8636 21.1894 36.8636 20.1818ZM40.0948 26V17.2727H46.9584V26H45.6175V18.5227H41.4357V26H40.0948ZM50.4282 24.0227L54.6327 17.2727H56.1782V26H54.8373V19.25L50.6555 26H49.0873V17.2727H50.4282V24.0227ZM61.8596 26.1818C61.0414 26.1818 60.3369 25.9886 59.746 25.6023C59.1551 25.2159 58.7005 24.6837 58.3823 24.0057C58.0641 23.3277 57.9051 22.553 57.9051 21.6818C57.9051 20.7955 58.0679 20.0133 58.3937 19.3352C58.7232 18.6534 59.1816 18.1212 59.7687 17.7386C60.3596 17.3523 61.049 17.1591 61.8369 17.1591C62.4505 17.1591 63.0035 17.2727 63.496 17.5C63.9884 17.7273 64.3918 18.0455 64.7062 18.4545C65.0206 18.8636 65.2157 19.3409 65.2914 19.8864H63.9505C63.8482 19.4886 63.621 19.1364 63.2687 18.8295C62.9202 18.5189 62.4505 18.3636 61.8596 18.3636C61.3369 18.3636 60.8785 18.5 60.4846 18.7727C60.0945 19.0417 59.7895 19.4223 59.5698 19.9148C59.3539 20.4034 59.246 20.9773 59.246 21.6364C59.246 22.3106 59.352 22.8977 59.5641 23.3977C59.7801 23.8977 60.0831 24.286 60.4732 24.5625C60.8672 24.839 61.3293 24.9773 61.8596 24.9773C62.2081 24.9773 62.5244 24.9167 62.8085 24.7955C63.0926 24.6742 63.3331 24.5 63.5301 24.2727C63.727 24.0455 63.8672 23.7727 63.9505 23.4545H65.2914C65.2157 23.9697 65.0282 24.4337 64.7289 24.8466C64.4335 25.2557 64.0414 25.5814 63.5528 25.8239C63.0679 26.0625 62.5035 26.1818 61.8596 26.1818ZM69.4998 26.2045C68.9468 26.2045 68.4449 26.1004 67.9941 25.892C67.5434 25.6799 67.1854 25.375 66.9203 24.9773C66.6551 24.5758 66.5226 24.0909 66.5226 23.5227C66.5226 23.0227 66.621 22.6174 66.818 22.3068C67.015 21.9924 67.2782 21.7462 67.6078 21.5682C67.9373 21.3902 68.301 21.2576 68.6987 21.1705C69.1002 21.0795 69.5036 21.0076 69.9089 20.9545C70.4392 20.8864 70.8691 20.8352 71.1987 20.8011C71.532 20.7633 71.7745 20.7008 71.926 20.6136C72.0813 20.5265 72.1589 20.375 72.1589 20.1591V20.1136C72.1589 19.553 72.0055 19.1174 71.6987 18.8068C71.3957 18.4962 70.9354 18.3409 70.318 18.3409C69.6779 18.3409 69.176 18.4811 68.8123 18.7614C68.4487 19.0417 68.193 19.3409 68.0453 19.6591L66.7726 19.2045C66.9998 18.6742 67.3029 18.2614 67.6816 17.9659C68.0642 17.6667 68.4809 17.4583 68.9316 17.3409C69.3862 17.2197 69.8332 17.1591 70.2726 17.1591C70.5529 17.1591 70.8748 17.1932 71.2385 17.2614C71.6059 17.3258 71.9601 17.4602 72.301 17.6648C72.6457 17.8693 72.9316 18.178 73.1589 18.5909C73.3862 19.0038 73.4998 19.5568 73.4998 20.25V26H72.1589V24.8182H72.0907C71.9998 25.0076 71.8483 25.2102 71.6362 25.4261C71.4241 25.642 71.1419 25.8258 70.7896 25.9773C70.4373 26.1288 70.0074 26.2045 69.4998 26.2045ZM69.7044 25C70.2347 25 70.6816 24.8958 71.0453 24.6875C71.4127 24.4792 71.6892 24.2102 71.8748 23.8807C72.0642 23.5511 72.1589 23.2045 72.1589 22.8409V21.6136C72.1021 21.6818 71.9771 21.7443 71.7839 21.8011C71.5945 21.8542 71.3748 21.9015 71.1248 21.9432C70.8786 21.9811 70.6381 22.0152 70.4032 22.0455C70.1722 22.072 69.9847 22.0947 69.8407 22.1136C69.4923 22.1591 69.1665 22.233 68.8635 22.3352C68.5642 22.4337 68.3218 22.5833 68.1362 22.7841C67.9544 22.9811 67.8635 23.25 67.8635 23.5909C67.8635 24.0568 68.0358 24.4091 68.3805 24.6477C68.729 24.8826 69.1703 25 69.7044 25ZM81.4682 21.0227V22.2727H76.65V21.0227H81.4682ZM76.9682 17.2727V26H75.6273V17.2727H76.9682ZM82.4909 17.2727V26H81.15V17.2727H82.4909ZM85.9607 24.0227L90.1652 17.2727H91.7107V26H90.3698V19.25L86.188 26H84.6198V17.2727H85.9607V24.0227ZM99.0967 26V18.5H96.7785C96.2557 18.5 95.8448 18.6212 95.5455 18.8636C95.2463 19.1061 95.0966 19.4394 95.0966 19.8636C95.0966 20.2803 95.2311 20.608 95.5001 20.8466C95.7728 21.0852 96.1459 21.2045 96.6194 21.2045H99.4376V22.4545H96.6194C96.0285 22.4545 95.519 22.3504 95.091 22.142C94.6629 21.9337 94.3334 21.6364 94.1023 21.25C93.8713 20.8598 93.7557 20.3977 93.7557 19.8636C93.7557 19.3258 93.877 18.8636 94.1194 18.4773C94.3618 18.0909 94.7084 17.7936 95.1591 17.5852C95.6137 17.3769 96.1535 17.2727 96.7785 17.2727H100.369V26H99.0967ZM93.2785 26L95.7557 21.6591H97.2103L94.733 26H93.2785ZM106.191 18.5227V17.2727H113.282V18.5227H110.418V26H109.077V18.5227H106.191ZM116.259 24.0227L120.463 17.2727H122.009V26H120.668V19.25L116.486 26H114.918V17.2727H116.259V24.0227ZM124.145 26V17.2727H131.008V26H129.668V18.5227H125.486V26H124.145ZM135.705 26.2045C135.152 26.2045 134.651 26.1004 134.2 25.892C133.749 25.6799 133.391 25.375 133.126 24.9773C132.861 24.5758 132.728 24.0909 132.728 23.5227C132.728 23.0227 132.827 22.6174 133.024 22.3068C133.221 21.9924 133.484 21.7462 133.813 21.5682C134.143 21.3902 134.507 21.2576 134.904 21.1705C135.306 21.0795 135.709 21.0076 136.115 20.9545C136.645 20.8864 137.075 20.8352 137.404 20.8011C137.738 20.7633 137.98 20.7008 138.132 20.6136C138.287 20.5265 138.365 20.375 138.365 20.1591V20.1136C138.365 19.553 138.211 19.1174 137.904 18.8068C137.601 18.4962 137.141 18.3409 136.524 18.3409C135.883 18.3409 135.382 18.4811 135.018 18.7614C134.654 19.0417 134.399 19.3409 134.251 19.6591L132.978 19.2045C133.205 18.6742 133.508 18.2614 133.887 17.9659C134.27 17.6667 134.687 17.4583 135.137 17.3409C135.592 17.2197 136.039 17.1591 136.478 17.1591C136.758 17.1591 137.08 17.1932 137.444 17.2614C137.812 17.3258 138.166 17.4602 138.507 17.6648C138.851 17.8693 139.137 18.178 139.365 18.5909C139.592 19.0038 139.705 19.5568 139.705 20.25V26H138.365V24.8182H138.296C138.205 25.0076 138.054 25.2102 137.842 25.4261C137.63 25.642 137.348 25.8258 136.995 25.9773C136.643 26.1288 136.213 26.2045 135.705 26.2045ZM135.91 25C136.44 25 136.887 24.8958 137.251 24.6875C137.618 24.4792 137.895 24.2102 138.08 23.8807C138.27 23.5511 138.365 23.2045 138.365 22.8409V21.6136C138.308 21.6818 138.183 21.7443 137.99 21.8011C137.8 21.8542 137.58 21.9015 137.33 21.9432C137.084 21.9811 136.844 22.0152 136.609 22.0455C136.378 22.072 136.19 22.0947 136.046 22.1136C135.698 22.1591 135.372 22.233 135.069 22.3352C134.77 22.4337 134.527 22.5833 134.342 22.7841C134.16 22.9811 134.069 23.25 134.069 23.5909C134.069 24.0568 134.241 24.4091 134.586 24.6477C134.935 24.8826 135.376 25 135.91 25Z" fill="black"/>
<path d="M18 18.82C17.7348 18.82 17.4804 18.9254 17.2929 19.1129C17.1054 19.3004 17 19.5548 17 19.82V27C17 27.2652 16.8946 27.5196 16.7071 27.7071C16.5196 27.8946 16.2652 28 16 28H5C4.73478 28 4.48043 27.8946 4.29289 27.7071C4.10536 27.5196 4 27.2652 4 27V16C4 15.7348 4.10536 15.4804 4.29289 15.2929C4.48043 15.1054 4.73478 15 5 15H12.18C12.4452 15 12.6996 14.8946 12.8871 14.7071C13.0746 14.5196 13.18 14.2652 13.18 14C13.18 13.7348 13.0746 13.4804 12.8871 13.2929C12.6996 13.1054 12.4452 13 12.18 13H5C4.20435 13 3.44129 13.3161 2.87868 13.8787C2.31607 14.4413 2 15.2044 2 16V27C2 27.7956 2.31607 28.5587 2.87868 29.1213C3.44129 29.6839 4.20435 30 5 30H16C16.7956 30 17.5587 29.6839 18.1213 29.1213C18.6839 28.5587 19 27.7956 19 27V19.82C19 19.5548 18.8946 19.3004 18.7071 19.1129C18.5196 18.9254 18.2652 18.82 18 18.82ZM21.92 10.62C21.8185 10.3757 21.6243 10.1815 21.38 10.08C21.2598 10.0288 21.1307 10.0016 21 10H15C14.7348 10 14.4804 10.1054 14.2929 10.2929C14.1054 10.4804 14 10.7348 14 11C14 11.2652 14.1054 11.5196 14.2929 11.7071C14.4804 11.8946 14.7348 12 15 12H18.59L8.29 22.29C8.19627 22.383 8.12188 22.4936 8.07111 22.6154C8.02034 22.7373 7.9942 22.868 7.9942 23C7.9942 23.132 8.02034 23.2627 8.07111 23.3846C8.12188 23.5064 8.19627 23.617 8.29 23.71C8.38296 23.8037 8.49356 23.8781 8.61542 23.9289C8.73728 23.9797 8.86799 24.0058 9 24.0058C9.13201 24.0058 9.26272 23.9797 9.38458 23.9289C9.50644 23.8781 9.61704 23.8037 9.71 23.71L20 13.41V17C20 17.2652 20.1054 17.5196 20.2929 17.7071C20.4804 17.8946 20.7348 18 21 18C21.2652 18 21.5196 17.8946 21.7071 17.7071C21.8946 17.5196 22 17.2652 22 17V11C21.9984 10.8693 21.9712 10.7402 21.92 10.62V10.62Z" fill="black"/>
</svg>
