<svg width="127" height="40" viewBox="0 0 127 40" fill="none" xmlns="http://www.w3.org/2000/svg">
<path d="M33.5682 24.0227L37.7727 17.2727H39.3182V26H37.9773V19.25L33.7955 26H32.2273V17.2727H33.5682V24.0227ZM47.2951 21.0227V22.2727H42.4769V21.0227H47.2951ZM42.7951 17.2727V26H41.4541V17.2727H42.7951ZM48.3178 17.2727V26H46.9769V17.2727H48.3178ZM53.9921 28.9773V14.3636H55.333V28.9773H53.9921ZM53.9921 26.1818C53.4012 26.1818 52.8633 26.0758 52.3785 25.8636C51.8936 25.6477 51.477 25.3428 51.1285 24.9489C50.78 24.5511 50.511 24.0758 50.3216 23.5227C50.1323 22.9697 50.0376 22.3561 50.0376 21.6818C50.0376 21 50.1323 20.3826 50.3216 19.8295C50.511 19.2727 50.78 18.7955 51.1285 18.3977C51.477 18 51.8936 17.6951 52.3785 17.483C52.8633 17.267 53.4012 17.1591 53.9921 17.1591H54.4012V26.1818H53.9921ZM53.9921 24.9773H54.2194V18.3636H53.9921C53.5451 18.3636 53.1569 18.4545 52.8273 18.6364C52.4978 18.8144 52.2251 19.0587 52.0091 19.3693C51.797 19.6761 51.6379 20.0284 51.5319 20.4261C51.4296 20.8239 51.3785 21.2424 51.3785 21.6818C51.3785 22.2652 51.4713 22.8068 51.6569 23.3068C51.8425 23.8068 52.1285 24.2102 52.5148 24.517C52.9012 24.8239 53.3936 24.9773 53.9921 24.9773ZM55.333 26.1818H54.9239V17.1591H55.333C55.9239 17.1591 56.4618 17.267 56.9466 17.483C57.4315 17.6951 57.8482 18 58.1966 18.3977C58.5451 18.7955 58.8141 19.2727 59.0035 19.8295C59.1929 20.3826 59.2876 21 59.2876 21.6818C59.2876 22.3561 59.1929 22.9697 59.0035 23.5227C58.8141 24.0758 58.5451 24.5511 58.1966 24.9489C57.8482 25.3428 57.4315 25.6477 56.9466 25.8636C56.4618 26.0758 55.9239 26.1818 55.333 26.1818ZM55.333 24.9773C55.7838 24.9773 56.172 24.8902 56.4978 24.7159C56.8273 24.5379 57.0982 24.2955 57.3103 23.9886C57.5262 23.678 57.6853 23.3258 57.7876 22.9318C57.8936 22.5341 57.9466 22.1174 57.9466 21.6818C57.9466 21.0985 57.8538 20.5549 57.6682 20.0511C57.4826 19.5473 57.1966 19.1402 56.8103 18.8295C56.4239 18.5189 55.9315 18.3636 55.333 18.3636H55.1057V24.9773H55.333ZM64.5627 26.1818C63.7748 26.1818 63.0836 25.9943 62.4889 25.6193C61.898 25.2443 61.4358 24.7197 61.1025 24.0455C60.773 23.3712 60.6082 22.5833 60.6082 21.6818C60.6082 20.7727 60.773 19.9792 61.1025 19.3011C61.4358 18.6231 61.898 18.0966 62.4889 17.7216C63.0836 17.3466 63.7748 17.1591 64.5627 17.1591C65.3506 17.1591 66.04 17.3466 66.6309 17.7216C67.2256 18.0966 67.6877 18.6231 68.0173 19.3011C68.3506 19.9792 68.5173 20.7727 68.5173 21.6818C68.5173 22.5833 68.3506 23.3712 68.0173 24.0455C67.6877 24.7197 67.2256 25.2443 66.6309 25.6193C66.04 25.9943 65.3506 26.1818 64.5627 26.1818ZM64.5627 24.9773C65.1612 24.9773 65.6536 24.8239 66.04 24.517C66.4264 24.2102 66.7123 23.8068 66.898 23.3068C67.0836 22.8068 67.1764 22.2652 67.1764 21.6818C67.1764 21.0985 67.0836 20.5549 66.898 20.0511C66.7123 19.5473 66.4264 19.1402 66.04 18.8295C65.6536 18.5189 65.1612 18.3636 64.5627 18.3636C63.9642 18.3636 63.4718 18.5189 63.0855 18.8295C62.6991 19.1402 62.4131 19.5473 62.2275 20.0511C62.0419 20.5549 61.9491 21.0985 61.9491 21.6818C61.9491 22.2652 62.0419 22.8068 62.2275 23.3068C62.4131 23.8068 62.6991 24.2102 63.0855 24.517C63.4718 24.8239 63.9642 24.9773 64.5627 24.9773ZM70.2441 29.2727V17.2727H71.5396V18.6591H71.6987C71.7972 18.5076 71.9335 18.3144 72.1078 18.0795C72.2858 17.8409 72.5396 17.6288 72.8691 17.4432C73.2025 17.2538 73.6532 17.1591 74.2214 17.1591C74.9563 17.1591 75.604 17.3428 76.1646 17.7102C76.7252 18.0777 77.1627 18.5985 77.4771 19.2727C77.7915 19.947 77.9487 20.7424 77.9487 21.6591C77.9487 22.5833 77.7915 23.3845 77.4771 24.0625C77.1627 24.7367 76.7271 25.2595 76.1703 25.6307C75.6135 25.9981 74.9714 26.1818 74.2441 26.1818C73.6835 26.1818 73.2347 26.089 72.8976 25.9034C72.5604 25.714 72.301 25.5 72.1191 25.2614C71.9373 25.0189 71.7972 24.8182 71.6987 24.6591H71.5851V29.2727H70.2441ZM71.5623 21.6364C71.5623 22.2955 71.6589 22.8769 71.8521 23.3807C72.0453 23.8807 72.3275 24.2727 72.6987 24.5568C73.0699 24.8371 73.5245 24.9773 74.0623 24.9773C74.6229 24.9773 75.0907 24.8295 75.4657 24.5341C75.8445 24.2348 76.1286 23.8333 76.318 23.3295C76.5112 22.822 76.6078 22.2576 76.6078 21.6364C76.6078 21.0227 76.5131 20.4697 76.3237 19.9773C76.1381 19.4811 75.8559 19.089 75.4771 18.8011C75.1021 18.5095 74.6305 18.3636 74.0623 18.3636C73.5169 18.3636 73.0585 18.5019 72.6873 18.7784C72.3161 19.0511 72.0358 19.4337 71.8464 19.9261C71.657 20.4148 71.5623 20.9848 71.5623 21.6364ZM84.4469 24.1818L87.4923 17.2727H88.7651L84.9923 26H83.9014L80.1969 17.2727H81.4469L84.4469 24.1818ZM81.0151 17.2727V26H79.6741V17.2727H81.0151ZM87.8787 26V17.2727H89.2196V26H87.8787ZM93.9223 26.2045C93.3693 26.2045 92.8674 26.1004 92.4166 25.892C91.9659 25.6799 91.6079 25.375 91.3428 24.9773C91.0776 24.5758 90.9451 24.0909 90.9451 23.5227C90.9451 23.0227 91.0435 22.6174 91.2405 22.3068C91.4375 21.9924 91.7007 21.7462 92.0303 21.5682C92.3598 21.3902 92.7235 21.2576 93.1212 21.1705C93.5227 21.0795 93.9261 21.0076 94.3314 20.9545C94.8617 20.8864 95.2916 20.8352 95.6212 20.8011C95.9545 20.7633 96.197 20.7008 96.3485 20.6136C96.5038 20.5265 96.5814 20.375 96.5814 20.1591V20.1136C96.5814 19.553 96.428 19.1174 96.1212 18.8068C95.8182 18.4962 95.3579 18.3409 94.7405 18.3409C94.1004 18.3409 93.5985 18.4811 93.2348 18.7614C92.8712 19.0417 92.6155 19.3409 92.4678 19.6591L91.1951 19.2045C91.4223 18.6742 91.7254 18.2614 92.1041 17.9659C92.4867 17.6667 92.9034 17.4583 93.3541 17.3409C93.8087 17.2197 94.2557 17.1591 94.6951 17.1591C94.9754 17.1591 95.2973 17.1932 95.661 17.2614C96.0284 17.3258 96.3826 17.4602 96.7235 17.6648C97.0682 17.8693 97.3541 18.178 97.5814 18.5909C97.8087 19.0038 97.9223 19.5568 97.9223 20.25V26H96.5814V24.8182H96.5132C96.4223 25.0076 96.2708 25.2102 96.0587 25.4261C95.8466 25.642 95.5644 25.8258 95.2121 25.9773C94.8598 26.1288 94.4299 26.2045 93.9223 26.2045ZM94.1269 25C94.6572 25 95.1041 24.8958 95.4678 24.6875C95.8352 24.4792 96.1117 24.2102 96.2973 23.8807C96.4867 23.5511 96.5814 23.2045 96.5814 22.8409V21.6136C96.5246 21.6818 96.3996 21.7443 96.2064 21.8011C96.017 21.8542 95.7973 21.9015 95.5473 21.9432C95.3011 21.9811 95.0606 22.0152 94.8257 22.0455C94.5947 22.072 94.4072 22.0947 94.2632 22.1136C93.9148 22.1591 93.589 22.233 93.286 22.3352C92.9867 22.4337 92.7443 22.5833 92.5587 22.7841C92.3769 22.9811 92.286 23.25 92.286 23.5909C92.286 24.0568 92.4583 24.4091 92.803 24.6477C93.1515 24.8826 93.5928 25 94.1269 25ZM106.913 17.2727V24.75H108.141V28.8182H106.8V26H100.05V17.2727H101.391V24.75H105.573V17.2727H106.913ZM111.227 24.0227L115.431 17.2727H116.977V26H115.636V19.25L111.454 26H109.886V17.2727H111.227V24.0227ZM124.363 26V18.5H122.045C121.522 18.5 121.111 18.6212 120.812 18.8636C120.513 19.1061 120.363 19.4394 120.363 19.8636C120.363 20.2803 120.497 20.608 120.766 20.8466C121.039 21.0852 121.412 21.2045 121.886 21.2045H124.704V22.4545H121.886C121.295 22.4545 120.785 22.3504 120.357 22.142C119.929 21.9337 119.6 21.6364 119.369 21.25C119.138 20.8598 119.022 20.3977 119.022 19.8636C119.022 19.3258 119.143 18.8636 119.386 18.4773C119.628 18.0909 119.975 17.7936 120.425 17.5852C120.88 17.3769 121.42 17.2727 122.045 17.2727H125.636V26H124.363ZM118.545 26L121.022 21.6591H122.477L119.999 26H118.545Z" fill="black"/>
<path d="M12 18.75C12.4142 18.75 12.75 19.0858 12.75 19.5V24.5C12.75 24.9142 12.4142 25.25 12 25.25C11.5858 25.25 11.25 24.9142 11.25 24.5V19.5C11.25 19.0858 11.5858 18.75 12 18.75Z" fill="black"/>
<path d="M12 17C12.5523 17 13 16.5523 13 16C13 15.4477 12.5523 15 12 15C11.4477 15 11 15.4477 11 16C11 16.5523 11.4477 17 12 17Z" fill="black"/>
<path fill-rule="evenodd" clip-rule="evenodd" d="M3.25 20C3.25 15.1675 7.16751 11.25 12 11.25C16.8325 11.25 20.75 15.1675 20.75 20C20.75 24.8325 16.8325 28.75 12 28.75C7.16751 28.75 3.25 24.8325 3.25 20ZM12 12.75C7.99594 12.75 4.75 15.9959 4.75 20C4.75 24.0041 7.99594 27.25 12 27.25C16.0041 27.25 19.25 24.0041 19.25 20C19.25 15.9959 16.0041 12.75 12 12.75Z" fill="black"/>
</svg>
