<svg width="126" height="40" viewBox="0 0 126 40" fill="none" xmlns="http://www.w3.org/2000/svg">
<path d="M50.2273 29.2727V17.2727H51.5227V18.6591H51.6818C51.7803 18.5076 51.9167 18.3144 52.0909 18.0795C52.2689 17.8409 52.5227 17.6288 52.8523 17.4432C53.1856 17.2538 53.6364 17.1591 54.2045 17.1591C54.9394 17.1591 55.5871 17.3428 56.1477 17.7102C56.7083 18.0777 57.1458 18.5985 57.4602 19.2727C57.7746 19.947 57.9318 20.7424 57.9318 21.6591C57.9318 22.5833 57.7746 23.3845 57.4602 24.0625C57.1458 24.7367 56.7102 25.2595 56.1534 25.6307C55.5966 25.9981 54.9545 26.1818 54.2273 26.1818C53.6667 26.1818 53.2178 26.089 52.8807 25.9034C52.5436 25.714 52.2841 25.5 52.1023 25.2614C51.9205 25.0189 51.7803 24.8182 51.6818 24.6591H51.5682V29.2727H50.2273ZM51.5455 21.6364C51.5455 22.2955 51.642 22.8769 51.8352 23.3807C52.0284 23.8807 52.3106 24.2727 52.6818 24.5568C53.053 24.8371 53.5076 24.9773 54.0455 24.9773C54.6061 24.9773 55.0739 24.8295 55.4489 24.5341C55.8277 24.2348 56.1117 23.8333 56.3011 23.3295C56.4943 22.822 56.5909 22.2576 56.5909 21.6364C56.5909 21.0227 56.4962 20.4697 56.3068 19.9773C56.1212 19.4811 55.839 19.089 55.4602 18.8011C55.0852 18.5095 54.6136 18.3636 54.0455 18.3636C53.5 18.3636 53.0417 18.5019 52.6705 18.7784C52.2992 19.0511 52.0189 19.4337 51.8295 19.9261C51.6402 20.4148 51.5455 20.9848 51.5455 21.6364ZM63.3164 26.1818C62.4755 26.1818 61.7501 25.9962 61.1402 25.625C60.5342 25.25 60.0664 24.7273 59.7368 24.0568C59.4111 23.3826 59.2482 22.5985 59.2482 21.7045C59.2482 20.8106 59.4111 20.0227 59.7368 19.3409C60.0664 18.6553 60.5247 18.1212 61.1118 17.7386C61.7027 17.3523 62.3921 17.1591 63.18 17.1591C63.6345 17.1591 64.0834 17.2348 64.5266 17.3864C64.9698 17.5379 65.3732 17.7841 65.7368 18.125C66.1005 18.4621 66.3902 18.9091 66.6061 19.4659C66.822 20.0227 66.93 20.7083 66.93 21.5227V22.0909H60.2027V20.9318H65.5664C65.5664 20.4394 65.4679 20 65.2709 19.6136C65.0777 19.2273 64.8012 18.9223 64.4414 18.6989C64.0853 18.4754 63.6648 18.3636 63.18 18.3636C62.6459 18.3636 62.1838 18.4962 61.7936 18.7614C61.4073 19.0227 61.1099 19.3636 60.9016 19.7841C60.6933 20.2045 60.5891 20.6553 60.5891 21.1364V21.9091C60.5891 22.5682 60.7027 23.1269 60.93 23.5852C61.1611 24.0398 61.4811 24.3864 61.8902 24.625C62.2993 24.8598 62.7747 24.9773 63.3164 24.9773C63.6686 24.9773 63.9868 24.928 64.2709 24.8295C64.5588 24.7273 64.8069 24.5758 65.0152 24.375C65.2236 24.1705 65.3845 23.9167 65.4982 23.6136L66.7936 23.9773C66.6573 24.4167 66.4281 24.803 66.1061 25.1364C65.7842 25.4659 65.3864 25.7235 64.913 25.9091C64.4395 26.0909 63.9073 26.1818 63.3164 26.1818ZM67.718 28.5V24.75H68.4452C68.6233 24.5644 68.7767 24.3636 68.9055 24.1477C69.0342 23.9318 69.146 23.6761 69.2407 23.3807C69.3392 23.0814 69.4225 22.7178 69.4907 22.2898C69.5589 21.858 69.6195 21.3371 69.6725 20.7273L69.968 17.2727H75.5134V24.75H76.8543V28.5H75.5134V26H69.0589V28.5H67.718ZM69.968 24.75H74.1725V18.5227H71.218L70.9907 20.7273C70.896 21.6402 70.7786 22.4375 70.6384 23.1193C70.4983 23.8011 70.2748 24.3447 69.968 24.75ZM80.8823 26.2045C80.3293 26.2045 79.8274 26.1004 79.3766 25.892C78.9259 25.6799 78.5679 25.375 78.3028 24.9773C78.0376 24.5758 77.9051 24.0909 77.9051 23.5227C77.9051 23.0227 78.0035 22.6174 78.2005 22.3068C78.3975 21.9924 78.6607 21.7462 78.9903 21.5682C79.3198 21.3902 79.6835 21.2576 80.0812 21.1705C80.4827 21.0795 80.8861 21.0076 81.2914 20.9545C81.8217 20.8864 82.2516 20.8352 82.5812 20.8011C82.9145 20.7633 83.157 20.7008 83.3085 20.6136C83.4638 20.5265 83.5414 20.375 83.5414 20.1591V20.1136C83.5414 19.553 83.388 19.1174 83.0812 18.8068C82.7782 18.4962 82.3179 18.3409 81.7005 18.3409C81.0604 18.3409 80.5585 18.4811 80.1948 18.7614C79.8312 19.0417 79.5755 19.3409 79.4278 19.6591L78.1551 19.2045C78.3823 18.6742 78.6854 18.2614 79.0641 17.9659C79.4467 17.6667 79.8634 17.4583 80.3141 17.3409C80.7687 17.2197 81.2157 17.1591 81.6551 17.1591C81.9354 17.1591 82.2573 17.1932 82.621 17.2614C82.9884 17.3258 83.3426 17.4602 83.6835 17.6648C84.0282 17.8693 84.3141 18.178 84.5414 18.5909C84.7687 19.0038 84.8823 19.5568 84.8823 20.25V26H83.5414V24.8182H83.4732C83.3823 25.0076 83.2308 25.2102 83.0187 25.4261C82.8066 25.642 82.5244 25.8258 82.1721 25.9773C81.8198 26.1288 81.3899 26.2045 80.8823 26.2045ZM81.0869 25C81.6172 25 82.0641 24.8958 82.4278 24.6875C82.7952 24.4792 83.0717 24.2102 83.2573 23.8807C83.4467 23.5511 83.5414 23.2045 83.5414 22.8409V21.6136C83.4846 21.6818 83.3596 21.7443 83.1664 21.8011C82.977 21.8542 82.7573 21.9015 82.5073 21.9432C82.2611 21.9811 82.0206 22.0152 81.7857 22.0455C81.5547 22.072 81.3672 22.0947 81.2232 22.1136C80.8748 22.1591 80.549 22.233 80.246 22.3352C79.9467 22.4337 79.7043 22.5833 79.5187 22.7841C79.3369 22.9811 79.246 23.25 79.246 23.5909C79.246 24.0568 79.4183 24.4091 79.763 24.6477C80.1115 24.8826 80.5528 25 81.0869 25ZM87.0098 26V17.2727H88.3507V21.0682H89.237L92.3734 17.2727H94.1007L90.578 21.4773L94.1461 26H92.4189L89.5552 22.3182H88.3507V26H87.0098ZM94.7835 18.5227V17.2727H101.874V18.5227H99.0108V26H97.6699V18.5227H94.7835ZM108.057 20.3864V21.6364H102.966V20.3864H108.057ZM109.144 18.5227V17.2727H116.234V18.5227H113.371V26H112.03V18.5227H109.144ZM119.029 20.4318H121.529C122.552 20.4318 123.334 20.6913 123.876 21.2102C124.418 21.7292 124.689 22.3864 124.689 23.1818C124.689 23.7045 124.567 24.1799 124.325 24.608C124.083 25.0322 123.726 25.3712 123.257 25.625C122.787 25.875 122.211 26 121.529 26H117.87V17.2727H119.211V24.75H121.529C122.06 24.75 122.495 24.6098 122.836 24.3295C123.177 24.0492 123.348 23.6894 123.348 23.25C123.348 22.7879 123.177 22.411 122.836 22.1193C122.495 21.8277 122.06 21.6818 121.529 21.6818H119.029V20.4318Z" fill="black"/>
<path fill-rule="evenodd" clip-rule="evenodd" d="M15.1369 11.4697C14.9963 11.329 14.8055 11.25 14.6066 11.25C14.4077 11.25 14.2169 11.329 14.0763 11.4697L4.88388 20.6621C4.78965 20.7563 4.72223 20.8739 4.68856 21.0028L3.68856 24.8313C3.62127 25.0889 3.69561 25.3629 3.88388 25.5511C4.07215 25.7394 4.34614 25.8138 4.60375 25.7465L8.43218 24.7465C8.56111 24.7128 8.67874 24.6454 8.77297 24.5511L17.9654 15.3588C18.2582 15.0659 18.2582 14.591 17.9654 14.2981L15.1369 11.4697ZM6.08843 21.5788L14.6066 13.0607L16.3744 14.8284L7.8562 23.3466L5.46344 23.9716L6.08843 21.5788Z" fill="black"/>
<path d="M4 27.25C3.58579 27.25 3.25 27.5858 3.25 28C3.25 28.4142 3.58579 28.75 4 28.75H19C19.4142 28.75 19.75 28.4142 19.75 28C19.75 27.5858 19.4142 27.25 19 27.25H4Z" fill="black"/>
</svg>
