<svg width="126" height="40" viewBox="0 0 126 40" fill="none" xmlns="http://www.w3.org/2000/svg">
<path d="M33.1136 18.4091C32.8106 18.4129 32.5057 18.4905 32.1989 18.642C31.8958 18.7936 31.642 18.9943 31.4375 19.2443C31.2367 19.4905 31.1364 19.7652 31.1364 20.0682H29.8182C29.8182 19.6894 29.9091 19.3258 30.0909 18.9773C30.2727 18.6288 30.517 18.3182 30.8239 18.0455C31.1345 17.7727 31.4867 17.5568 31.8807 17.3977C32.2784 17.2386 32.6894 17.1591 33.1136 17.1591C33.9091 17.1591 34.5833 17.3598 35.1364 17.7614C35.6932 18.1629 36.1155 18.6932 36.4034 19.3523C36.6951 20.0114 36.8409 20.7273 36.8409 21.5V21.8182C36.8409 22.5871 36.6951 23.303 36.4034 23.9659C36.1155 24.625 35.6932 25.1553 35.1364 25.5568C34.5833 25.9583 33.9091 26.1591 33.1136 26.1591C32.4773 26.1591 31.911 26.0189 31.4148 25.7386C30.9186 25.4545 30.5284 25.0758 30.2443 24.6023C29.9602 24.1288 29.8182 23.6023 29.8182 23.0227H31.1364C31.1364 23.3523 31.2292 23.661 31.4148 23.9489C31.6042 24.233 31.8485 24.464 32.1477 24.642C32.4508 24.8163 32.7727 24.9053 33.1136 24.9091C33.6212 24.9053 34.053 24.7462 34.4091 24.4318C34.7652 24.1174 35.036 23.7235 35.2216 23.25C35.4072 22.7765 35.5 22.2992 35.5 21.8182V21.5C35.5 21.0076 35.4072 20.5265 35.2216 20.0568C35.0398 19.5833 34.7708 19.1913 34.4148 18.8807C34.0625 18.5701 33.6288 18.4129 33.1136 18.4091ZM36.0455 20.9773V22.2273H32.2273V20.9773H36.0455ZM38.5635 26V17.2727H39.9044V21.0682H40.7908L43.9272 17.2727H45.6544L42.1317 21.4773L45.6999 26H43.9726L41.109 22.3182H39.9044V26H38.5635ZM50.0234 26.1818C49.2052 26.1818 48.5006 25.9886 47.9097 25.6023C47.3188 25.2159 46.8643 24.6837 46.5461 24.0057C46.2279 23.3277 46.0688 22.553 46.0688 21.6818C46.0688 20.7955 46.2317 20.0133 46.5574 19.3352C46.887 18.6534 47.3453 18.1212 47.9324 17.7386C48.5234 17.3523 49.2127 17.1591 50.0006 17.1591C50.6143 17.1591 51.1673 17.2727 51.6597 17.5C52.1521 17.7273 52.5556 18.0455 52.8699 18.4545C53.1843 18.8636 53.3794 19.3409 53.4552 19.8864H52.1143C52.012 19.4886 51.7847 19.1364 51.4324 18.8295C51.084 18.5189 50.6143 18.3636 50.0234 18.3636C49.5006 18.3636 49.0423 18.5 48.6484 18.7727C48.2582 19.0417 47.9533 19.4223 47.7336 19.9148C47.5177 20.4034 47.4097 20.9773 47.4097 21.6364C47.4097 22.3106 47.5158 22.8977 47.7279 23.3977C47.9438 23.8977 48.2468 24.286 48.637 24.5625C49.0309 24.839 49.493 24.9773 50.0234 24.9773C50.3718 24.9773 50.6881 24.9167 50.9722 24.7955C51.2563 24.6742 51.4968 24.5 51.6938 24.2727C51.8908 24.0455 52.0309 23.7727 52.1143 23.4545H53.4552C53.3794 23.9697 53.1919 24.4337 52.8927 24.8466C52.5972 25.2557 52.2052 25.5814 51.7165 25.8239C51.2317 26.0625 50.6673 26.1818 50.0234 26.1818ZM55.0954 26V17.2727H61.959V26H60.6181V18.5227H56.4363V26H55.0954ZM65.0652 26.0909C64.7849 26.0909 64.5443 25.9905 64.3436 25.7898C64.1428 25.589 64.0424 25.3485 64.0424 25.0682C64.0424 24.7879 64.1428 24.5473 64.3436 24.3466C64.5443 24.1458 64.7849 24.0455 65.0652 24.0455C65.3455 24.0455 65.586 24.1458 65.7868 24.3466C65.9875 24.5473 66.0879 24.7879 66.0879 25.0682C66.0879 25.2538 66.0406 25.4242 65.9459 25.5795C65.8549 25.7348 65.7318 25.8598 65.5765 25.9545C65.425 26.0455 65.2546 26.0909 65.0652 26.0909ZM77.7196 18H76.3105C76.2272 17.5947 76.0813 17.2386 75.873 16.9318C75.6685 16.625 75.4185 16.3674 75.123 16.1591C74.8313 15.947 74.5075 15.7879 74.1514 15.6818C73.7954 15.5758 73.4241 15.5227 73.0378 15.5227C72.3332 15.5227 71.695 15.7008 71.123 16.0568C70.5548 16.4129 70.1022 16.9375 69.7651 17.6307C69.4317 18.3239 69.2651 19.1742 69.2651 20.1818C69.2651 21.1894 69.4317 22.0398 69.7651 22.733C70.1022 23.4261 70.5548 23.9508 71.123 24.3068C71.695 24.6629 72.3332 24.8409 73.0378 24.8409C73.4241 24.8409 73.7954 24.7879 74.1514 24.6818C74.5075 24.5758 74.8313 24.4186 75.123 24.2102C75.4185 23.9981 75.6685 23.7386 75.873 23.4318C76.0813 23.1212 76.2272 22.7652 76.3105 22.3636H77.7196C77.6135 22.9583 77.4204 23.4905 77.1401 23.9602C76.8598 24.4299 76.5113 24.8295 76.0946 25.1591C75.6779 25.4848 75.2101 25.733 74.6912 25.9034C74.176 26.0739 73.6249 26.1591 73.0378 26.1591C72.0454 26.1591 71.1628 25.9167 70.3901 25.4318C69.6173 24.947 69.0094 24.2576 68.5662 23.3636C68.123 22.4697 67.9014 21.4091 67.9014 20.1818C67.9014 18.9545 68.123 17.8939 68.5662 17C69.0094 16.1061 69.6173 15.4167 70.3901 14.9318C71.1628 14.447 72.0454 14.2045 73.0378 14.2045C73.6249 14.2045 74.176 14.2898 74.6912 14.4602C75.2101 14.6307 75.6779 14.8807 76.0946 15.2102C76.5113 15.536 76.8598 15.9337 77.1401 16.4034C77.4204 16.8693 77.6135 17.4015 77.7196 18ZM79.4948 26V17.2727H83.063C84.0024 17.2727 84.7486 17.4848 85.3016 17.9091C85.8546 18.3333 86.1311 18.8939 86.1311 19.5909C86.1311 20.1212 85.9739 20.5322 85.6595 20.8239C85.3452 21.1117 84.9417 21.3068 84.4493 21.4091C84.7713 21.4545 85.0838 21.5682 85.3868 21.75C85.6936 21.9318 85.9474 22.1818 86.1482 22.5C86.3489 22.8144 86.4493 23.2008 86.4493 23.6591C86.4493 24.1061 86.3357 24.5057 86.1084 24.858C85.8811 25.2102 85.5554 25.4886 85.1311 25.6932C84.7069 25.8977 84.1993 26 83.6084 26H79.4948ZM80.7675 24.7727H83.6084C84.0705 24.7727 84.4323 24.6629 84.6936 24.4432C84.955 24.2235 85.0857 23.9242 85.0857 23.5455C85.0857 23.0947 84.955 22.7405 84.6936 22.483C84.4323 22.2216 84.0705 22.0909 83.6084 22.0909H80.7675V24.7727ZM80.7675 20.9318H83.063C83.4228 20.9318 83.7315 20.8826 83.9891 20.7841C84.2467 20.6818 84.4436 20.5379 84.58 20.3523C84.7202 20.1629 84.7902 19.9394 84.7902 19.6818C84.7902 19.3144 84.6368 19.0265 84.33 18.8182C84.0232 18.6061 83.6008 18.5 83.063 18.5H80.7675V20.9318ZM92.2273 14.3636V26H90.8182V15.8409H90.7501L87.9091 17.7273V16.2955L90.8182 14.3636H92.2273ZM95.5664 26.0909C95.2861 26.0909 95.0456 25.9905 94.8448 25.7898C94.6441 25.589 94.5437 25.3485 94.5437 25.0682C94.5437 24.7879 94.6441 24.5473 94.8448 24.3466C95.0456 24.1458 95.2861 24.0455 95.5664 24.0455C95.8467 24.0455 96.0873 24.1458 96.288 24.3466C96.4888 24.5473 96.5892 24.7879 96.5892 25.0682C96.5892 25.2538 96.5418 25.4242 96.4471 25.5795C96.3562 25.7348 96.2331 25.8598 96.0778 25.9545C95.9263 26.0455 95.7558 26.0909 95.5664 26.0909ZM99.6754 17.2727L101.766 20.8409L103.857 17.2727H105.403L102.584 21.6364L105.403 26H103.857L101.766 22.6136L99.6754 26H98.1299L100.903 21.6364L98.1299 17.2727H99.6754ZM108.337 14.3636V26H106.996V14.3636H108.337ZM116.655 19.2273L115.45 19.5682C115.374 19.3674 115.263 19.1723 115.115 18.983C114.971 18.7898 114.774 18.6307 114.524 18.5057C114.274 18.3807 113.954 18.3182 113.564 18.3182C113.03 18.3182 112.585 18.4413 112.229 18.6875C111.876 18.9299 111.7 19.2386 111.7 19.6136C111.7 19.947 111.821 20.2102 112.064 20.4034C112.306 20.5966 112.685 20.7576 113.2 20.8864L114.496 21.2045C115.276 21.3939 115.857 21.6837 116.24 22.0739C116.623 22.4602 116.814 22.9583 116.814 23.5682C116.814 24.0682 116.67 24.5152 116.382 24.9091C116.098 25.303 115.7 25.6136 115.189 25.8409C114.677 26.0682 114.083 26.1818 113.405 26.1818C112.515 26.1818 111.778 25.9886 111.194 25.6023C110.611 25.2159 110.242 24.6515 110.087 23.9091L111.359 23.5909C111.48 24.0606 111.71 24.4129 112.047 24.6477C112.388 24.8826 112.833 25 113.382 25C114.007 25 114.503 24.8674 114.871 24.6023C115.242 24.3333 115.427 24.0114 115.427 23.6364C115.427 23.3333 115.321 23.0795 115.109 22.875C114.897 22.6667 114.571 22.5114 114.132 22.4091L112.677 22.0682C111.878 21.8788 111.291 21.5852 110.916 21.1875C110.545 20.786 110.359 20.2841 110.359 19.6818C110.359 19.1894 110.498 18.7538 110.774 18.375C111.054 17.9962 111.435 17.6989 111.916 17.483C112.401 17.267 112.95 17.1591 113.564 17.1591C114.427 17.1591 115.105 17.3485 115.598 17.7273C116.094 18.1061 116.446 18.6061 116.655 19.2273ZM119.512 17.2727L121.603 20.8409L123.694 17.2727H125.24L122.421 21.6364L125.24 26H123.694L121.603 22.6136L119.512 26H117.967L120.74 21.6364L117.967 17.2727H119.512Z" fill="black"/>
<path fill-rule="evenodd" clip-rule="evenodd" d="M10.7379 24.6273C9.96427 24.6273 9.31895 24.036 9.2514 23.2654C9.11015 21.6541 9.07441 20.0356 9.14427 18.4203C9.05994 18.4147 8.97563 18.4088 8.89133 18.4026L7.40178 18.2941C6.44973 18.2247 5.91752 17.1631 6.43151 16.3587C7.5277 14.6432 9.53693 12.7231 11.1904 11.5354C11.6742 11.1879 12.3258 11.1879 12.8097 11.5354C14.4631 12.7231 16.4723 14.6432 17.5685 16.3587C18.0825 17.1631 17.5503 18.2247 16.5983 18.2941L15.1087 18.4026C15.0244 18.4088 14.9401 18.4147 14.8558 18.4203C14.9256 20.0356 14.8899 21.6541 14.7486 23.2654C14.6811 24.036 14.0358 24.6273 13.2622 24.6273H10.7379ZM10.6815 17.7625C10.5678 19.5498 10.589 21.3431 10.745 23.1273H13.255C13.411 21.3431 13.4323 19.5498 13.3186 17.7625C13.3058 17.5622 13.3739 17.365 13.5077 17.2153C13.6414 17.0656 13.8296 16.9757 14.0301 16.9658C14.3535 16.9499 14.6767 16.9302 14.9997 16.9066L16.0815 16.8278C15.1219 15.4145 13.9204 14.1802 12.5313 13.1823L12 12.8007L11.4687 13.1823C10.0796 14.1802 8.87813 15.4145 7.91858 16.8278L9.00038 16.9066C9.32337 16.9302 9.64656 16.9499 9.9699 16.9658C10.1704 16.9757 10.3586 17.0656 10.4924 17.2153C10.6261 17.365 10.6942 17.5622 10.6815 17.7625Z" fill="black"/>
<path d="M5.75 25C5.75 24.5858 5.41421 24.25 5 24.25C4.58579 24.25 4.25 24.5858 4.25 25V27C4.25 27.9665 5.0335 28.75 6 28.75H18C18.9665 28.75 19.75 27.9665 19.75 27V25C19.75 24.5858 19.4142 24.25 19 24.25C18.5858 24.25 18.25 24.5858 18.25 25V27C18.25 27.1381 18.1381 27.25 18 27.25H6C5.86193 27.25 5.75 27.1381 5.75 27V25Z" fill="black"/>
</svg>
